solid OpenSCAD_Model
  facet normal 0.894074 0.0280974 0.447037
    outer loop
      vertex 24.9507 1.56976 0
      vertex 0 0 50
      vertex 25 0 0
    endloop
  endfacet
  facet normal 0.890546 0.0841813 0.447037
    outer loop
      vertex 24.8029 3.13333 0
      vertex 0 0 50
      vertex 24.9507 1.56976 0
    endloop
  endfacet
  facet normal 0.883502 0.139933 0.447037
    outer loop
      vertex 24.5572 4.68453 0
      vertex 0 0 50
      vertex 24.8029 3.13333 0
    endloop
  endfacet
  facet normal 0.872973 0.195133 0.447037
    outer loop
      vertex 24.2146 6.21725 0
      vertex 0 0 50
      vertex 24.5572 4.68453 0
    endloop
  endfacet
  facet normal 0.858998 0.249562 0.447037
    outer loop
      vertex 23.7764 7.72542 0
      vertex 0 0 50
      vertex 24.2146 6.21725 0
    endloop
  endfacet
  facet normal 0.841632 0.303006 0.447037
    outer loop
      vertex 23.2444 9.20311 0
      vertex 0 0 50
      vertex 23.7764 7.72542 0
    endloop
  endfacet
  facet normal 0.820946 0.355255 0.447037
    outer loop
      vertex 22.6207 10.6445 0
      vertex 0 0 50
      vertex 23.2444 9.20311 0
    endloop
  endfacet
  facet normal 0.797019 0.406102 0.447037
    outer loop
      vertex 21.9077 12.0438 0
      vertex 0 0 50
      vertex 22.6207 10.6445 0
    endloop
  endfacet
  facet normal 0.769947 0.455345 0.447037
    outer loop
      vertex 21.1082 13.3957 0
      vertex 0 0 50
      vertex 21.9077 12.0438 0
    endloop
  endfacet
  facet normal 0.739836 0.502792 0.447037
    outer loop
      vertex 20.2254 14.6946 0
      vertex 0 0 50
      vertex 21.1082 13.3957 0
    endloop
  endfacet
  facet normal 0.706806 0.548255 0.447037
    outer loop
      vertex 19.2628 15.9356 0
      vertex 0 0 50
      vertex 20.2254 14.6946 0
    endloop
  endfacet
  facet normal 0.670986 0.591554 0.447037
    outer loop
      vertex 18.2242 17.1137 0
      vertex 0 0 50
      vertex 19.2628 15.9356 0
    endloop
  endfacet
  facet normal 0.632518 0.632518 0.447037
    outer loop
      vertex 17.1137 18.2242 0
      vertex 0 0 50
      vertex 18.2242 17.1137 0
    endloop
  endfacet
  facet normal 0.591554 0.670986 0.447037
    outer loop
      vertex 15.9356 19.2628 0
      vertex 0 0 50
      vertex 17.1137 18.2242 0
    endloop
  endfacet
  facet normal 0.548255 0.706806 0.447037
    outer loop
      vertex 14.6946 20.2254 0
      vertex 0 0 50
      vertex 15.9356 19.2628 0
    endloop
  endfacet
  facet normal 0.502792 0.739836 0.447037
    outer loop
      vertex 13.3957 21.1082 0
      vertex 0 0 50
      vertex 14.6946 20.2254 0
    endloop
  endfacet
  facet normal 0.455345 0.769947 0.447037
    outer loop
      vertex 12.0438 21.9077 0
      vertex 0 0 50
      vertex 13.3957 21.1082 0
    endloop
  endfacet
  facet normal 0.406102 0.797019 0.447037
    outer loop
      vertex 10.6445 22.6207 0
      vertex 0 0 50
      vertex 12.0438 21.9077 0
    endloop
  endfacet
  facet normal 0.355255 0.820946 0.447037
    outer loop
      vertex 9.20311 23.2444 0
      vertex 0 0 50
      vertex 10.6445 22.6207 0
    endloop
  endfacet
  facet normal 0.303006 0.841632 0.447037
    outer loop
      vertex 7.72542 23.7764 0
      vertex 0 0 50
      vertex 9.20311 23.2444 0
    endloop
  endfacet
  facet normal 0.249562 0.858998 0.447037
    outer loop
      vertex 6.21725 24.2146 0
      vertex 0 0 50
      vertex 7.72542 23.7764 0
    endloop
  endfacet
  facet normal 0.195133 0.872973 0.447037
    outer loop
      vertex 4.68453 24.5572 0
      vertex 0 0 50
      vertex 6.21725 24.2146 0
    endloop
  endfacet
  facet normal 0.139933 0.883502 0.447037
    outer loop
      vertex 3.13333 24.8029 0
      vertex 0 0 50
      vertex 4.68453 24.5572 0
    endloop
  endfacet
  facet normal 0.0841813 0.890546 0.447037
    outer loop
      vertex 1.56976 24.9507 0
      vertex 0 0 50
      vertex 3.13333 24.8029 0
    endloop
  endfacet
  facet normal 0.0280974 0.894074 0.447037
    outer loop
      vertex 1.53081e-15 25 0
      vertex 0 0 50
      vertex 1.56976 24.9507 0
    endloop
  endfacet
  facet normal -0.0280974 0.894074 0.447037
    outer loop
      vertex -1.56976 24.9507 0
      vertex 0 0 50
      vertex 1.53081e-15 25 0
    endloop
  endfacet
  facet normal -0.0841813 0.890546 0.447037
    outer loop
      vertex -3.13333 24.8029 0
      vertex -0 0 50
      vertex -1.56976 24.9507 0
    endloop
  endfacet
  facet normal -0.139933 0.883502 0.447037
    outer loop
      vertex -4.68453 24.5572 0
      vertex -0 0 50
      vertex -3.13333 24.8029 0
    endloop
  endfacet
  facet normal -0.195133 0.872973 0.447037
    outer loop
      vertex -6.21725 24.2146 0
      vertex -0 0 50
      vertex -4.68453 24.5572 0
    endloop
  endfacet
  facet normal -0.249562 0.858998 0.447037
    outer loop
      vertex -7.72542 23.7764 0
      vertex -0 0 50
      vertex -6.21725 24.2146 0
    endloop
  endfacet
  facet normal -0.303006 0.841632 0.447037
    outer loop
      vertex -9.20311 23.2444 0
      vertex -0 0 50
      vertex -7.72542 23.7764 0
    endloop
  endfacet
  facet normal -0.355255 0.820946 0.447037
    outer loop
      vertex -10.6445 22.6207 0
      vertex -0 0 50
      vertex -9.20311 23.2444 0
    endloop
  endfacet
  facet normal -0.406102 0.797019 0.447037
    outer loop
      vertex -12.0438 21.9077 0
      vertex -0 0 50
      vertex -10.6445 22.6207 0
    endloop
  endfacet
  facet normal -0.455345 0.769947 0.447037
    outer loop
      vertex -13.3957 21.1082 0
      vertex -0 0 50
      vertex -12.0438 21.9077 0
    endloop
  endfacet
  facet normal -0.502792 0.739836 0.447037
    outer loop
      vertex -14.6946 20.2254 0
      vertex -0 0 50
      vertex -13.3957 21.1082 0
    endloop
  endfacet
  facet normal -0.548255 0.706806 0.447037
    outer loop
      vertex -15.9356 19.2628 0
      vertex -0 0 50
      vertex -14.6946 20.2254 0
    endloop
  endfacet
  facet normal -0.591554 0.670986 0.447037
    outer loop
      vertex -17.1137 18.2242 0
      vertex -0 0 50
      vertex -15.9356 19.2628 0
    endloop
  endfacet
  facet normal -0.632518 0.632518 0.447037
    outer loop
      vertex -18.2242 17.1137 0
      vertex -0 0 50
      vertex -17.1137 18.2242 0
    endloop
  endfacet
  facet normal -0.670986 0.591554 0.447037
    outer loop
      vertex -19.2628 15.9356 0
      vertex -0 0 50
      vertex -18.2242 17.1137 0
    endloop
  endfacet
  facet normal -0.706806 0.548255 0.447037
    outer loop
      vertex -20.2254 14.6946 0
      vertex -0 0 50
      vertex -19.2628 15.9356 0
    endloop
  endfacet
  facet normal -0.739836 0.502792 0.447037
    outer loop
      vertex -21.1082 13.3957 0
      vertex -0 0 50
      vertex -20.2254 14.6946 0
    endloop
  endfacet
  facet normal -0.769947 0.455345 0.447037
    outer loop
      vertex -21.9077 12.0438 0
      vertex -0 0 50
      vertex -21.1082 13.3957 0
    endloop
  endfacet
  facet normal -0.797019 0.406102 0.447037
    outer loop
      vertex -22.6207 10.6445 0
      vertex -0 0 50
      vertex -21.9077 12.0438 0
    endloop
  endfacet
  facet normal -0.820946 0.355255 0.447037
    outer loop
      vertex -23.2444 9.20311 0
      vertex -0 0 50
      vertex -22.6207 10.6445 0
    endloop
  endfacet
  facet normal -0.841632 0.303006 0.447037
    outer loop
      vertex -23.7764 7.72542 0
      vertex -0 0 50
      vertex -23.2444 9.20311 0
    endloop
  endfacet
  facet normal -0.858998 0.249562 0.447037
    outer loop
      vertex -24.2146 6.21725 0
      vertex -0 0 50
      vertex -23.7764 7.72542 0
    endloop
  endfacet
  facet normal -0.872973 0.195133 0.447037
    outer loop
      vertex -24.5572 4.68453 0
      vertex -0 0 50
      vertex -24.2146 6.21725 0
    endloop
  endfacet
  facet normal -0.883502 0.139933 0.447037
    outer loop
      vertex -24.8029 3.13333 0
      vertex -0 0 50
      vertex -24.5572 4.68453 0
    endloop
  endfacet
  facet normal -0.890546 0.0841813 0.447037
    outer loop
      vertex -24.9507 1.56976 0
      vertex -0 0 50
      vertex -24.8029 3.13333 0
    endloop
  endfacet
  facet normal -0.894074 0.0280974 0.447037
    outer loop
      vertex -25 3.06162e-15 0
      vertex -0 0 50
      vertex -24.9507 1.56976 0
    endloop
  endfacet
  facet normal -0.894074 -0.0280974 0.447037
    outer loop
      vertex -24.9507 -1.56976 0
      vertex -0 0 50
      vertex -25 3.06162e-15 0
    endloop
  endfacet
  facet normal -0.890546 -0.0841813 0.447037
    outer loop
      vertex -24.8029 -3.13333 0
      vertex -0 -0 50
      vertex -24.9507 -1.56976 0
    endloop
  endfacet
  facet normal -0.883502 -0.139933 0.447037
    outer loop
      vertex -24.5572 -4.68453 0
      vertex -0 -0 50
      vertex -24.8029 -3.13333 0
    endloop
  endfacet
  facet normal -0.872973 -0.195133 0.447037
    outer loop
      vertex -24.2146 -6.21725 0
      vertex -0 -0 50
      vertex -24.5572 -4.68453 0
    endloop
  endfacet
  facet normal -0.858998 -0.249562 0.447037
    outer loop
      vertex -23.7764 -7.72542 0
      vertex -0 -0 50
      vertex -24.2146 -6.21725 0
    endloop
  endfacet
  facet normal -0.841632 -0.303006 0.447037
    outer loop
      vertex -23.2444 -9.20311 0
      vertex -0 -0 50
      vertex -23.7764 -7.72542 0
    endloop
  endfacet
  facet normal -0.820946 -0.355255 0.447037
    outer loop
      vertex -22.6207 -10.6445 0
      vertex -0 -0 50
      vertex -23.2444 -9.20311 0
    endloop
  endfacet
  facet normal -0.797019 -0.406102 0.447037
    outer loop
      vertex -21.9077 -12.0438 0
      vertex -0 -0 50
      vertex -22.6207 -10.6445 0
    endloop
  endfacet
  facet normal -0.769947 -0.455345 0.447037
    outer loop
      vertex -21.1082 -13.3957 0
      vertex -0 -0 50
      vertex -21.9077 -12.0438 0
    endloop
  endfacet
  facet normal -0.739836 -0.502792 0.447037
    outer loop
      vertex -20.2254 -14.6946 0
      vertex -0 -0 50
      vertex -21.1082 -13.3957 0
    endloop
  endfacet
  facet normal -0.706806 -0.548255 0.447037
    outer loop
      vertex -19.2628 -15.9356 0
      vertex -0 -0 50
      vertex -20.2254 -14.6946 0
    endloop
  endfacet
  facet normal -0.670986 -0.591554 0.447037
    outer loop
      vertex -18.2242 -17.1137 0
      vertex -0 -0 50
      vertex -19.2628 -15.9356 0
    endloop
  endfacet
  facet normal -0.632518 -0.632518 0.447037
    outer loop
      vertex -17.1137 -18.2242 0
      vertex -0 -0 50
      vertex -18.2242 -17.1137 0
    endloop
  endfacet
  facet normal -0.591554 -0.670986 0.447037
    outer loop
      vertex -15.9356 -19.2628 0
      vertex -0 -0 50
      vertex -17.1137 -18.2242 0
    endloop
  endfacet
  facet normal -0.548255 -0.706806 0.447037
    outer loop
      vertex -14.6946 -20.2254 0
      vertex -0 -0 50
      vertex -15.9356 -19.2628 0
    endloop
  endfacet
  facet normal -0.502792 -0.739836 0.447037
    outer loop
      vertex -13.3957 -21.1082 0
      vertex -0 -0 50
      vertex -14.6946 -20.2254 0
    endloop
  endfacet
  facet normal -0.455345 -0.769947 0.447037
    outer loop
      vertex -12.0438 -21.9077 0
      vertex -0 -0 50
      vertex -13.3957 -21.1082 0
    endloop
  endfacet
  facet normal -0.406102 -0.797019 0.447037
    outer loop
      vertex -10.6445 -22.6207 0
      vertex -0 -0 50
      vertex -12.0438 -21.9077 0
    endloop
  endfacet
  facet normal -0.355255 -0.820946 0.447037
    outer loop
      vertex -9.20311 -23.2444 0
      vertex -0 -0 50
      vertex -10.6445 -22.6207 0
    endloop
  endfacet
  facet normal -0.303006 -0.841632 0.447037
    outer loop
      vertex -7.72542 -23.7764 0
      vertex -0 -0 50
      vertex -9.20311 -23.2444 0
    endloop
  endfacet
  facet normal -0.249562 -0.858998 0.447037
    outer loop
      vertex -6.21725 -24.2146 0
      vertex -0 -0 50
      vertex -7.72542 -23.7764 0
    endloop
  endfacet
  facet normal -0.195133 -0.872973 0.447037
    outer loop
      vertex -4.68453 -24.5572 0
      vertex -0 -0 50
      vertex -6.21725 -24.2146 0
    endloop
  endfacet
  facet normal -0.139933 -0.883502 0.447037
    outer loop
      vertex -3.13333 -24.8029 0
      vertex -0 -0 50
      vertex -4.68453 -24.5572 0
    endloop
  endfacet
  facet normal -0.0841813 -0.890546 0.447037
    outer loop
      vertex -1.56976 -24.9507 0
      vertex -0 -0 50
      vertex -3.13333 -24.8029 0
    endloop
  endfacet
  facet normal -0.0280974 -0.894074 0.447037
    outer loop
      vertex -4.59243e-15 -25 0
      vertex -0 -0 50
      vertex -1.56976 -24.9507 0
    endloop
  endfacet
  facet normal 0.0280974 -0.894074 0.447037
    outer loop
      vertex 1.56976 -24.9507 0
      vertex -0 -0 50
      vertex -4.59243e-15 -25 0
    endloop
  endfacet
  facet normal 0.0841813 -0.890546 0.447037
    outer loop
      vertex 3.13333 -24.8029 0
      vertex 0 -0 50
      vertex 1.56976 -24.9507 0
    endloop
  endfacet
  facet normal 0.139933 -0.883502 0.447037
    outer loop
      vertex 4.68453 -24.5572 0
      vertex 0 -0 50
      vertex 3.13333 -24.8029 0
    endloop
  endfacet
  facet normal 0.195133 -0.872973 0.447037
    outer loop
      vertex 6.21725 -24.2146 0
      vertex 0 -0 50
      vertex 4.68453 -24.5572 0
    endloop
  endfacet
  facet normal 0.249562 -0.858998 0.447037
    outer loop
      vertex 7.72542 -23.7764 0
      vertex 0 -0 50
      vertex 6.21725 -24.2146 0
    endloop
  endfacet
  facet normal 0.303006 -0.841632 0.447037
    outer loop
      vertex 9.20311 -23.2444 0
      vertex 0 -0 50
      vertex 7.72542 -23.7764 0
    endloop
  endfacet
  facet normal 0.355255 -0.820946 0.447037
    outer loop
      vertex 10.6445 -22.6207 0
      vertex 0 -0 50
      vertex 9.20311 -23.2444 0
    endloop
  endfacet
  facet normal 0.406102 -0.797019 0.447037
    outer loop
      vertex 12.0438 -21.9077 0
      vertex 0 -0 50
      vertex 10.6445 -22.6207 0
    endloop
  endfacet
  facet normal 0.455345 -0.769947 0.447037
    outer loop
      vertex 13.3957 -21.1082 0
      vertex 0 -0 50
      vertex 12.0438 -21.9077 0
    endloop
  endfacet
  facet normal 0.502792 -0.739836 0.447037
    outer loop
      vertex 14.6946 -20.2254 0
      vertex 0 -0 50
      vertex 13.3957 -21.1082 0
    endloop
  endfacet
  facet normal 0.548255 -0.706806 0.447037
    outer loop
      vertex 15.9356 -19.2628 0
      vertex 0 -0 50
      vertex 14.6946 -20.2254 0
    endloop
  endfacet
  facet normal 0.591554 -0.670986 0.447037
    outer loop
      vertex 17.1137 -18.2242 0
      vertex 0 -0 50
      vertex 15.9356 -19.2628 0
    endloop
  endfacet
  facet normal 0.632518 -0.632518 0.447037
    outer loop
      vertex 18.2242 -17.1137 0
      vertex 0 -0 50
      vertex 17.1137 -18.2242 0
    endloop
  endfacet
  facet normal 0.670986 -0.591554 0.447037
    outer loop
      vertex 19.2628 -15.9356 0
      vertex 0 -0 50
      vertex 18.2242 -17.1137 0
    endloop
  endfacet
  facet normal 0.706806 -0.548255 0.447037
    outer loop
      vertex 20.2254 -14.6946 0
      vertex 0 -0 50
      vertex 19.2628 -15.9356 0
    endloop
  endfacet
  facet normal 0.739836 -0.502792 0.447037
    outer loop
      vertex 21.1082 -13.3957 0
      vertex 0 -0 50
      vertex 20.2254 -14.6946 0
    endloop
  endfacet
  facet normal 0.769947 -0.455345 0.447037
    outer loop
      vertex 21.9077 -12.0438 0
      vertex 0 -0 50
      vertex 21.1082 -13.3957 0
    endloop
  endfacet
  facet normal 0.797019 -0.406102 0.447037
    outer loop
      vertex 22.6207 -10.6445 0
      vertex 0 -0 50
      vertex 21.9077 -12.0438 0
    endloop
  endfacet
  facet normal 0.820946 -0.355255 0.447037
    outer loop
      vertex 23.2444 -9.20311 0
      vertex 0 -0 50
      vertex 22.6207 -10.6445 0
    endloop
  endfacet
  facet normal 0.841632 -0.303006 0.447037
    outer loop
      vertex 23.7764 -7.72542 0
      vertex 0 -0 50
      vertex 23.2444 -9.20311 0
    endloop
  endfacet
  facet normal 0.858998 -0.249562 0.447037
    outer loop
      vertex 24.2146 -6.21725 0
      vertex 0 -0 50
      vertex 23.7764 -7.72542 0
    endloop
  endfacet
  facet normal 0.872973 -0.195133 0.447037
    outer loop
      vertex 24.5572 -4.68453 0
      vertex 0 -0 50
      vertex 24.2146 -6.21725 0
    endloop
  endfacet
  facet normal 0.883502 -0.139933 0.447037
    outer loop
      vertex 24.8029 -3.13333 0
      vertex 0 -0 50
      vertex 24.5572 -4.68453 0
    endloop
  endfacet
  facet normal 0.890546 -0.0841813 0.447037
    outer loop
      vertex 24.9507 -1.56976 0
      vertex 0 -0 50
      vertex 24.8029 -3.13333 0
    endloop
  endfacet
  facet normal 0.894074 -0.0280974 0.447037
    outer loop
      vertex 25 0 0
      vertex 0 -0 50
      vertex 24.9507 -1.56976 0
    endloop
  endfacet
  facet normal 0 0 -1
    outer loop
      vertex 24.9507 -1.56976 0
      vertex 24.9507 1.56976 0
      vertex 25 0 0
    endloop
  endfacet
  facet normal 0 0 -1
    outer loop
      vertex 24.8029 -3.13333 0
      vertex 24.9507 1.56976 0
      vertex 24.9507 -1.56976 0
    endloop
  endfacet
  facet normal 0 0 -1
    outer loop
      vertex 24.8029 -3.13333 0
      vertex 24.8029 3.13333 0
      vertex 24.9507 1.56976 0
    endloop
  endfacet
  facet normal 0 0 -1
    outer loop
      vertex 24.5572 -4.68453 0
      vertex 24.8029 3.13333 0
      vertex 24.8029 -3.13333 0
    endloop
  endfacet
  facet normal 0 0 -1
    outer loop
      vertex 24.5572 -4.68453 0
      vertex 24.5572 4.68453 0
      vertex 24.8029 3.13333 0
    endloop
  endfacet
  facet normal 0 0 -1
    outer loop
      vertex 24.2146 -6.21725 0
      vertex 24.5572 4.68453 0
      vertex 24.5572 -4.68453 0
    endloop
  endfacet
  facet normal 0 0 -1
    outer loop
      vertex 24.2146 -6.21725 0
      vertex 24.2146 6.21725 0
      vertex 24.5572 4.68453 0
    endloop
  endfacet
  facet normal 0 0 -1
    outer loop
      vertex 23.7764 -7.72542 0
      vertex 24.2146 6.21725 0
      vertex 24.2146 -6.21725 0
    endloop
  endfacet
  facet normal 0 0 -1
    outer loop
      vertex 23.7764 -7.72542 0
      vertex 23.7764 7.72542 0
      vertex 24.2146 6.21725 0
    endloop
  endfacet
  facet normal 0 0 -1
    outer loop
      vertex 23.2444 -9.20311 0
      vertex 23.7764 7.72542 0
      vertex 23.7764 -7.72542 0
    endloop
  endfacet
  facet normal 0 0 -1
    outer loop
      vertex 23.2444 -9.20311 0
      vertex 23.2444 9.20311 0
      vertex 23.7764 7.72542 0
    endloop
  endfacet
  facet normal 0 0 -1
    outer loop
      vertex 22.6207 -10.6445 0
      vertex 23.2444 9.20311 0
      vertex 23.2444 -9.20311 0
    endloop
  endfacet
  facet normal 0 0 -1
    outer loop
      vertex 22.6207 -10.6445 0
      vertex 22.6207 10.6445 0
      vertex 23.2444 9.20311 0
    endloop
  endfacet
  facet normal 0 0 -1
    outer loop
      vertex 21.9077 -12.0438 0
      vertex 22.6207 10.6445 0
      vertex 22.6207 -10.6445 0
    endloop
  endfacet
  facet normal 0 0 -1
    outer loop
      vertex 21.9077 -12.0438 0
      vertex 21.9077 12.0438 0
      vertex 22.6207 10.6445 0
    endloop
  endfacet
  facet normal 0 0 -1
    outer loop
      vertex 21.1082 -13.3957 0
      vertex 21.9077 12.0438 0
      vertex 21.9077 -12.0438 0
    endloop
  endfacet
  facet normal 0 0 -1
    outer loop
      vertex 21.1082 -13.3957 0
      vertex 21.1082 13.3957 0
      vertex 21.9077 12.0438 0
    endloop
  endfacet
  facet normal 0 0 -1
    outer loop
      vertex 20.2254 -14.6946 0
      vertex 21.1082 13.3957 0
      vertex 21.1082 -13.3957 0
    endloop
  endfacet
  facet normal 0 0 -1
    outer loop
      vertex 20.2254 -14.6946 0
      vertex 20.2254 14.6946 0
      vertex 21.1082 13.3957 0
    endloop
  endfacet
  facet normal 0 0 -1
    outer loop
      vertex 19.2628 -15.9356 0
      vertex 20.2254 14.6946 0
      vertex 20.2254 -14.6946 0
    endloop
  endfacet
  facet normal 0 0 -1
    outer loop
      vertex 19.2628 -15.9356 0
      vertex 19.2628 15.9356 0
      vertex 20.2254 14.6946 0
    endloop
  endfacet
  facet normal 0 0 -1
    outer loop
      vertex 18.2242 -17.1137 0
      vertex 19.2628 15.9356 0
      vertex 19.2628 -15.9356 0
    endloop
  endfacet
  facet normal 0 0 -1
    outer loop
      vertex 18.2242 -17.1137 0
      vertex 18.2242 17.1137 0
      vertex 19.2628 15.9356 0
    endloop
  endfacet
  facet normal 0 0 -1
    outer loop
      vertex 17.1137 -18.2242 0
      vertex 18.2242 17.1137 0
      vertex 18.2242 -17.1137 0
    endloop
  endfacet
  facet normal 0 0 -1
    outer loop
      vertex 17.1137 -18.2242 0
      vertex 17.1137 18.2242 0
      vertex 18.2242 17.1137 0
    endloop
  endfacet
  facet normal 0 0 -1
    outer loop
      vertex 15.9356 -19.2628 0
      vertex 17.1137 18.2242 0
      vertex 17.1137 -18.2242 0
    endloop
  endfacet
  facet normal 0 0 -1
    outer loop
      vertex 15.9356 -19.2628 0
      vertex 15.9356 19.2628 0
      vertex 17.1137 18.2242 0
    endloop
  endfacet
  facet normal 0 0 -1
    outer loop
      vertex 14.6946 -20.2254 0
      vertex 15.9356 19.2628 0
      vertex 15.9356 -19.2628 0
    endloop
  endfacet
  facet normal 0 0 -1
    outer loop
      vertex 14.6946 -20.2254 0
      vertex 14.6946 20.2254 0
      vertex 15.9356 19.2628 0
    endloop
  endfacet
  facet normal 0 0 -1
    outer loop
      vertex 13.3957 -21.1082 0
      vertex 14.6946 20.2254 0
      vertex 14.6946 -20.2254 0
    endloop
  endfacet
  facet normal 0 0 -1
    outer loop
      vertex 13.3957 -21.1082 0
      vertex 13.3957 21.1082 0
      vertex 14.6946 20.2254 0
    endloop
  endfacet
  facet normal 0 0 -1
    outer loop
      vertex 12.0438 -21.9077 0
      vertex 13.3957 21.1082 0
      vertex 13.3957 -21.1082 0
    endloop
  endfacet
  facet normal 0 0 -1
    outer loop
      vertex 12.0438 -21.9077 0
      vertex 12.0438 21.9077 0
      vertex 13.3957 21.1082 0
    endloop
  endfacet
  facet normal 0 0 -1
    outer loop
      vertex 10.6445 -22.6207 0
      vertex 12.0438 21.9077 0
      vertex 12.0438 -21.9077 0
    endloop
  endfacet
  facet normal 0 0 -1
    outer loop
      vertex 10.6445 -22.6207 0
      vertex 10.6445 22.6207 0
      vertex 12.0438 21.9077 0
    endloop
  endfacet
  facet normal 0 0 -1
    outer loop
      vertex 9.20311 -23.2444 0
      vertex 10.6445 22.6207 0
      vertex 10.6445 -22.6207 0
    endloop
  endfacet
  facet normal 0 0 -1
    outer loop
      vertex 9.20311 -23.2444 0
      vertex 9.20311 23.2444 0
      vertex 10.6445 22.6207 0
    endloop
  endfacet
  facet normal 0 0 -1
    outer loop
      vertex 7.72542 -23.7764 0
      vertex 9.20311 23.2444 0
      vertex 9.20311 -23.2444 0
    endloop
  endfacet
  facet normal 0 0 -1
    outer loop
      vertex 7.72542 -23.7764 0
      vertex 7.72542 23.7764 0
      vertex 9.20311 23.2444 0
    endloop
  endfacet
  facet normal 0 0 -1
    outer loop
      vertex 6.21725 -24.2146 0
      vertex 7.72542 23.7764 0
      vertex 7.72542 -23.7764 0
    endloop
  endfacet
  facet normal 0 0 -1
    outer loop
      vertex 6.21725 -24.2146 0
      vertex 6.21725 24.2146 0
      vertex 7.72542 23.7764 0
    endloop
  endfacet
  facet normal 0 0 -1
    outer loop
      vertex 4.68453 -24.5572 0
      vertex 6.21725 24.2146 0
      vertex 6.21725 -24.2146 0
    endloop
  endfacet
  facet normal 0 0 -1
    outer loop
      vertex 4.68453 -24.5572 0
      vertex 4.68453 24.5572 0
      vertex 6.21725 24.2146 0
    endloop
  endfacet
  facet normal 0 0 -1
    outer loop
      vertex 3.13333 -24.8029 0
      vertex 4.68453 24.5572 0
      vertex 4.68453 -24.5572 0
    endloop
  endfacet
  facet normal 0 0 -1
    outer loop
      vertex 3.13333 -24.8029 0
      vertex 3.13333 24.8029 0
      vertex 4.68453 24.5572 0
    endloop
  endfacet
  facet normal 0 0 -1
    outer loop
      vertex 1.56976 -24.9507 0
      vertex 3.13333 24.8029 0
      vertex 3.13333 -24.8029 0
    endloop
  endfacet
  facet normal 0 0 -1
    outer loop
      vertex 1.56976 -24.9507 0
      vertex 1.56976 24.9507 0
      vertex 3.13333 24.8029 0
    endloop
  endfacet
  facet normal 0 0 -1
    outer loop
      vertex 1.56976 -24.9507 0
      vertex 1.53081e-15 25 0
      vertex 1.56976 24.9507 0
    endloop
  endfacet
  facet normal 0 0 -1
    outer loop
      vertex -4.59243e-15 -25 0
      vertex 1.53081e-15 25 0
      vertex 1.56976 -24.9507 0
    endloop
  endfacet
  facet normal 0 0 -1
    outer loop
      vertex -1.56976 -24.9507 0
      vertex 1.53081e-15 25 0
      vertex -4.59243e-15 -25 0
    endloop
  endfacet
  facet normal 0 0 -1
    outer loop
      vertex -1.56976 -24.9507 0
      vertex -1.56976 24.9507 0
      vertex 1.53081e-15 25 0
    endloop
  endfacet
  facet normal 0 0 -1
    outer loop
      vertex -3.13333 -24.8029 0
      vertex -1.56976 24.9507 0
      vertex -1.56976 -24.9507 0
    endloop
  endfacet
  facet normal 0 0 -1
    outer loop
      vertex -3.13333 -24.8029 0
      vertex -3.13333 24.8029 0
      vertex -1.56976 24.9507 0
    endloop
  endfacet
  facet normal 0 0 -1
    outer loop
      vertex -4.68453 -24.5572 0
      vertex -3.13333 24.8029 0
      vertex -3.13333 -24.8029 0
    endloop
  endfacet
  facet normal 0 0 -1
    outer loop
      vertex -4.68453 -24.5572 0
      vertex -4.68453 24.5572 0
      vertex -3.13333 24.8029 0
    endloop
  endfacet
  facet normal 0 0 -1
    outer loop
      vertex -6.21725 -24.2146 0
      vertex -4.68453 24.5572 0
      vertex -4.68453 -24.5572 0
    endloop
  endfacet
  facet normal 0 0 -1
    outer loop
      vertex -6.21725 -24.2146 0
      vertex -6.21725 24.2146 0
      vertex -4.68453 24.5572 0
    endloop
  endfacet
  facet normal 0 0 -1
    outer loop
      vertex -7.72542 -23.7764 0
      vertex -6.21725 24.2146 0
      vertex -6.21725 -24.2146 0
    endloop
  endfacet
  facet normal 0 0 -1
    outer loop
      vertex -7.72542 -23.7764 0
      vertex -7.72542 23.7764 0
      vertex -6.21725 24.2146 0
    endloop
  endfacet
  facet normal 0 0 -1
    outer loop
      vertex -9.20311 -23.2444 0
      vertex -7.72542 23.7764 0
      vertex -7.72542 -23.7764 0
    endloop
  endfacet
  facet normal 0 0 -1
    outer loop
      vertex -9.20311 -23.2444 0
      vertex -9.20311 23.2444 0
      vertex -7.72542 23.7764 0
    endloop
  endfacet
  facet normal 0 0 -1
    outer loop
      vertex -10.6445 -22.6207 0
      vertex -9.20311 23.2444 0
      vertex -9.20311 -23.2444 0
    endloop
  endfacet
  facet normal 0 0 -1
    outer loop
      vertex -10.6445 -22.6207 0
      vertex -10.6445 22.6207 0
      vertex -9.20311 23.2444 0
    endloop
  endfacet
  facet normal 0 0 -1
    outer loop
      vertex -12.0438 -21.9077 0
      vertex -10.6445 22.6207 0
      vertex -10.6445 -22.6207 0
    endloop
  endfacet
  facet normal 0 0 -1
    outer loop
      vertex -12.0438 -21.9077 0
      vertex -12.0438 21.9077 0
      vertex -10.6445 22.6207 0
    endloop
  endfacet
  facet normal 0 0 -1
    outer loop
      vertex -13.3957 -21.1082 0
      vertex -12.0438 21.9077 0
      vertex -12.0438 -21.9077 0
    endloop
  endfacet
  facet normal 0 0 -1
    outer loop
      vertex -13.3957 -21.1082 0
      vertex -13.3957 21.1082 0
      vertex -12.0438 21.9077 0
    endloop
  endfacet
  facet normal 0 0 -1
    outer loop
      vertex -14.6946 -20.2254 0
      vertex -13.3957 21.1082 0
      vertex -13.3957 -21.1082 0
    endloop
  endfacet
  facet normal 0 0 -1
    outer loop
      vertex -14.6946 -20.2254 0
      vertex -14.6946 20.2254 0
      vertex -13.3957 21.1082 0
    endloop
  endfacet
  facet normal 0 0 -1
    outer loop
      vertex -15.9356 -19.2628 0
      vertex -14.6946 20.2254 0
      vertex -14.6946 -20.2254 0
    endloop
  endfacet
  facet normal 0 0 -1
    outer loop
      vertex -15.9356 -19.2628 0
      vertex -15.9356 19.2628 0
      vertex -14.6946 20.2254 0
    endloop
  endfacet
  facet normal 0 0 -1
    outer loop
      vertex -17.1137 -18.2242 0
      vertex -15.9356 19.2628 0
      vertex -15.9356 -19.2628 0
    endloop
  endfacet
  facet normal 0 0 -1
    outer loop
      vertex -17.1137 -18.2242 0
      vertex -17.1137 18.2242 0
      vertex -15.9356 19.2628 0
    endloop
  endfacet
  facet normal 0 0 -1
    outer loop
      vertex -18.2242 -17.1137 0
      vertex -17.1137 18.2242 0
      vertex -17.1137 -18.2242 0
    endloop
  endfacet
  facet normal 0 0 -1
    outer loop
      vertex -18.2242 -17.1137 0
      vertex -18.2242 17.1137 0
      vertex -17.1137 18.2242 0
    endloop
  endfacet
  facet normal 0 0 -1
    outer loop
      vertex -19.2628 -15.9356 0
      vertex -18.2242 17.1137 0
      vertex -18.2242 -17.1137 0
    endloop
  endfacet
  facet normal 0 0 -1
    outer loop
      vertex -19.2628 -15.9356 0
      vertex -19.2628 15.9356 0
      vertex -18.2242 17.1137 0
    endloop
  endfacet
  facet normal 0 0 -1
    outer loop
      vertex -20.2254 -14.6946 0
      vertex -19.2628 15.9356 0
      vertex -19.2628 -15.9356 0
    endloop
  endfacet
  facet normal 0 0 -1
    outer loop
      vertex -20.2254 -14.6946 0
      vertex -20.2254 14.6946 0
      vertex -19.2628 15.9356 0
    endloop
  endfacet
  facet normal 0 0 -1
    outer loop
      vertex -21.1082 -13.3957 0
      vertex -20.2254 14.6946 0
      vertex -20.2254 -14.6946 0
    endloop
  endfacet
  facet normal 0 0 -1
    outer loop
      vertex -21.1082 -13.3957 0
      vertex -21.1082 13.3957 0
      vertex -20.2254 14.6946 0
    endloop
  endfacet
  facet normal 0 0 -1
    outer loop
      vertex -21.9077 -12.0438 0
      vertex -21.1082 13.3957 0
      vertex -21.1082 -13.3957 0
    endloop
  endfacet
  facet normal 0 0 -1
    outer loop
      vertex -21.9077 -12.0438 0
      vertex -21.9077 12.0438 0
      vertex -21.1082 13.3957 0
    endloop
  endfacet
  facet normal 0 0 -1
    outer loop
      vertex -22.6207 -10.6445 0
      vertex -21.9077 12.0438 0
      vertex -21.9077 -12.0438 0
    endloop
  endfacet
  facet normal 0 0 -1
    outer loop
      vertex -22.6207 -10.6445 0
      vertex -22.6207 10.6445 0
      vertex -21.9077 12.0438 0
    endloop
  endfacet
  facet normal 0 0 -1
    outer loop
      vertex -23.2444 -9.20311 0
      vertex -22.6207 10.6445 0
      vertex -22.6207 -10.6445 0
    endloop
  endfacet
  facet normal 0 0 -1
    outer loop
      vertex -23.2444 -9.20311 0
      vertex -23.2444 9.20311 0
      vertex -22.6207 10.6445 0
    endloop
  endfacet
  facet normal 0 0 -1
    outer loop
      vertex -23.7764 -7.72542 0
      vertex -23.2444 9.20311 0
      vertex -23.2444 -9.20311 0
    endloop
  endfacet
  facet normal 0 0 -1
    outer loop
      vertex -23.7764 -7.72542 0
      vertex -23.7764 7.72542 0
      vertex -23.2444 9.20311 0
    endloop
  endfacet
  facet normal 0 0 -1
    outer loop
      vertex -24.2146 -6.21725 0
      vertex -23.7764 7.72542 0
      vertex -23.7764 -7.72542 0
    endloop
  endfacet
  facet normal 0 0 -1
    outer loop
      vertex -24.2146 -6.21725 0
      vertex -24.2146 6.21725 0
      vertex -23.7764 7.72542 0
    endloop
  endfacet
  facet normal 0 0 -1
    outer loop
      vertex -24.5572 -4.68453 0
      vertex -24.2146 6.21725 0
      vertex -24.2146 -6.21725 0
    endloop
  endfacet
  facet normal 0 0 -1
    outer loop
      vertex -24.5572 -4.68453 0
      vertex -24.5572 4.68453 0
      vertex -24.2146 6.21725 0
    endloop
  endfacet
  facet normal 0 0 -1
    outer loop
      vertex -24.8029 -3.13333 0
      vertex -24.5572 4.68453 0
      vertex -24.5572 -4.68453 0
    endloop
  endfacet
  facet normal 0 0 -1
    outer loop
      vertex -24.8029 -3.13333 0
      vertex -24.8029 3.13333 0
      vertex -24.5572 4.68453 0
    endloop
  endfacet
  facet normal 0 0 -1
    outer loop
      vertex -24.9507 -1.56976 0
      vertex -24.8029 3.13333 0
      vertex -24.8029 -3.13333 0
    endloop
  endfacet
  facet normal 0 0 -1
    outer loop
      vertex -24.9507 -1.56976 0
      vertex -24.9507 1.56976 0
      vertex -24.8029 3.13333 0
    endloop
  endfacet
  facet normal 0 -0 -1
    outer loop
      vertex -24.9507 1.56976 0
      vertex -24.9507 -1.56976 0
      vertex -25 3.06162e-15 0
    endloop
  endfacet
endsolid OpenSCAD_Model
