solid OpenSCAD_Model
  facet normal 0.999507 0.0314107 0
    outer loop
      vertex 25 0 50
      vertex 24.9507 1.56976 0
      vertex 24.9507 1.56976 50
    endloop
  endfacet
  facet normal 0.999507 0.0314107 0
    outer loop
      vertex 24.9507 1.56976 0
      vertex 25 0 50
      vertex 25 0 0
    endloop
  endfacet
  facet normal 0.995562 0.0941082 0
    outer loop
      vertex 24.9507 1.56976 50
      vertex 24.8029 3.13333 0
      vertex 24.8029 3.13333 50
    endloop
  endfacet
  facet normal 0.995562 0.0941082 0
    outer loop
      vertex 24.8029 3.13333 0
      vertex 24.9507 1.56976 50
      vertex 24.9507 1.56976 0
    endloop
  endfacet
  facet normal 0.987688 0.156435 0
    outer loop
      vertex 24.8029 3.13333 50
      vertex 24.5572 4.68453 0
      vertex 24.5572 4.68453 50
    endloop
  endfacet
  facet normal 0.987688 0.156435 0
    outer loop
      vertex 24.5572 4.68453 0
      vertex 24.8029 3.13333 50
      vertex 24.8029 3.13333 0
    endloop
  endfacet
  facet normal 0.975917 0.218143 0
    outer loop
      vertex 24.5572 4.68453 50
      vertex 24.2146 6.21725 0
      vertex 24.2146 6.21725 50
    endloop
  endfacet
  facet normal 0.975917 0.218143 0
    outer loop
      vertex 24.2146 6.21725 0
      vertex 24.5572 4.68453 50
      vertex 24.5572 4.68453 0
    endloop
  endfacet
  facet normal 0.960294 0.278991 0
    outer loop
      vertex 24.2146 6.21725 50
      vertex 23.7764 7.72542 0
      vertex 23.7764 7.72542 50
    endloop
  endfacet
  facet normal 0.960294 0.278991 0
    outer loop
      vertex 23.7764 7.72542 0
      vertex 24.2146 6.21725 50
      vertex 24.2146 6.21725 0
    endloop
  endfacet
  facet normal 0.940881 0.338738 0
    outer loop
      vertex 23.7764 7.72542 50
      vertex 23.2444 9.20311 0
      vertex 23.2444 9.20311 50
    endloop
  endfacet
  facet normal 0.940881 0.338738 0
    outer loop
      vertex 23.2444 9.20311 0
      vertex 23.7764 7.72542 50
      vertex 23.7764 7.72542 0
    endloop
  endfacet
  facet normal 0.917755 0.397148 0
    outer loop
      vertex 23.2444 9.20311 50
      vertex 22.6207 10.6445 0
      vertex 22.6207 10.6445 50
    endloop
  endfacet
  facet normal 0.917755 0.397148 0
    outer loop
      vertex 22.6207 10.6445 0
      vertex 23.2444 9.20311 50
      vertex 23.2444 9.20311 0
    endloop
  endfacet
  facet normal 0.891007 0.45399 0
    outer loop
      vertex 22.6207 10.6445 50
      vertex 21.9077 12.0438 0
      vertex 21.9077 12.0438 50
    endloop
  endfacet
  facet normal 0.891007 0.45399 0
    outer loop
      vertex 21.9077 12.0438 0
      vertex 22.6207 10.6445 50
      vertex 22.6207 10.6445 0
    endloop
  endfacet
  facet normal 0.860742 0.509042 0
    outer loop
      vertex 21.9077 12.0438 50
      vertex 21.1082 13.3957 0
      vertex 21.1082 13.3957 50
    endloop
  endfacet
  facet normal 0.860742 0.509042 0
    outer loop
      vertex 21.1082 13.3957 0
      vertex 21.9077 12.0438 50
      vertex 21.9077 12.0438 0
    endloop
  endfacet
  facet normal 0.827081 0.562083 0
    outer loop
      vertex 21.1082 13.3957 50
      vertex 20.2254 14.6946 0
      vertex 20.2254 14.6946 50
    endloop
  endfacet
  facet normal 0.827081 0.562083 0
    outer loop
      vertex 20.2254 14.6946 0
      vertex 21.1082 13.3957 50
      vertex 21.1082 13.3957 0
    endloop
  endfacet
  facet normal 0.790154 0.612908 0
    outer loop
      vertex 20.2254 14.6946 50
      vertex 19.2628 15.9356 0
      vertex 19.2628 15.9356 50
    endloop
  endfacet
  facet normal 0.790154 0.612908 0
    outer loop
      vertex 19.2628 15.9356 0
      vertex 20.2254 14.6946 50
      vertex 20.2254 14.6946 0
    endloop
  endfacet
  facet normal 0.750112 0.661311 0
    outer loop
      vertex 19.2628 15.9356 50
      vertex 18.2242 17.1137 0
      vertex 18.2242 17.1137 50
    endloop
  endfacet
  facet normal 0.750112 0.661311 0
    outer loop
      vertex 18.2242 17.1137 0
      vertex 19.2628 15.9356 50
      vertex 19.2628 15.9356 0
    endloop
  endfacet
  facet normal 0.707107 0.707107 0
    outer loop
      vertex 18.2242 17.1137 50
      vertex 17.1137 18.2242 0
      vertex 17.1137 18.2242 50
    endloop
  endfacet
  facet normal 0.707107 0.707107 0
    outer loop
      vertex 17.1137 18.2242 0
      vertex 18.2242 17.1137 50
      vertex 18.2242 17.1137 0
    endloop
  endfacet
  facet normal 0.661311 0.750112 -0
    outer loop
      vertex 17.1137 18.2242 0
      vertex 15.9356 19.2628 50
      vertex 17.1137 18.2242 50
    endloop
  endfacet
  facet normal 0.661311 0.750112 0
    outer loop
      vertex 15.9356 19.2628 50
      vertex 17.1137 18.2242 0
      vertex 15.9356 19.2628 0
    endloop
  endfacet
  facet normal 0.612908 0.790154 -0
    outer loop
      vertex 15.9356 19.2628 0
      vertex 14.6946 20.2254 50
      vertex 15.9356 19.2628 50
    endloop
  endfacet
  facet normal 0.612908 0.790154 0
    outer loop
      vertex 14.6946 20.2254 50
      vertex 15.9356 19.2628 0
      vertex 14.6946 20.2254 0
    endloop
  endfacet
  facet normal 0.562083 0.827081 -0
    outer loop
      vertex 14.6946 20.2254 0
      vertex 13.3957 21.1082 50
      vertex 14.6946 20.2254 50
    endloop
  endfacet
  facet normal 0.562083 0.827081 0
    outer loop
      vertex 13.3957 21.1082 50
      vertex 14.6946 20.2254 0
      vertex 13.3957 21.1082 0
    endloop
  endfacet
  facet normal 0.509042 0.860742 -0
    outer loop
      vertex 13.3957 21.1082 0
      vertex 12.0438 21.9077 50
      vertex 13.3957 21.1082 50
    endloop
  endfacet
  facet normal 0.509042 0.860742 0
    outer loop
      vertex 12.0438 21.9077 50
      vertex 13.3957 21.1082 0
      vertex 12.0438 21.9077 0
    endloop
  endfacet
  facet normal 0.45399 0.891007 -0
    outer loop
      vertex 12.0438 21.9077 0
      vertex 10.6445 22.6207 50
      vertex 12.0438 21.9077 50
    endloop
  endfacet
  facet normal 0.45399 0.891007 0
    outer loop
      vertex 10.6445 22.6207 50
      vertex 12.0438 21.9077 0
      vertex 10.6445 22.6207 0
    endloop
  endfacet
  facet normal 0.397148 0.917755 -0
    outer loop
      vertex 10.6445 22.6207 0
      vertex 9.20311 23.2444 50
      vertex 10.6445 22.6207 50
    endloop
  endfacet
  facet normal 0.397148 0.917755 0
    outer loop
      vertex 9.20311 23.2444 50
      vertex 10.6445 22.6207 0
      vertex 9.20311 23.2444 0
    endloop
  endfacet
  facet normal 0.338738 0.940881 -0
    outer loop
      vertex 9.20311 23.2444 0
      vertex 7.72542 23.7764 50
      vertex 9.20311 23.2444 50
    endloop
  endfacet
  facet normal 0.338738 0.940881 0
    outer loop
      vertex 7.72542 23.7764 50
      vertex 9.20311 23.2444 0
      vertex 7.72542 23.7764 0
    endloop
  endfacet
  facet normal 0.278991 0.960294 -0
    outer loop
      vertex 7.72542 23.7764 0
      vertex 6.21725 24.2146 50
      vertex 7.72542 23.7764 50
    endloop
  endfacet
  facet normal 0.278991 0.960294 0
    outer loop
      vertex 6.21725 24.2146 50
      vertex 7.72542 23.7764 0
      vertex 6.21725 24.2146 0
    endloop
  endfacet
  facet normal 0.218143 0.975917 -0
    outer loop
      vertex 6.21725 24.2146 0
      vertex 4.68453 24.5572 50
      vertex 6.21725 24.2146 50
    endloop
  endfacet
  facet normal 0.218143 0.975917 0
    outer loop
      vertex 4.68453 24.5572 50
      vertex 6.21725 24.2146 0
      vertex 4.68453 24.5572 0
    endloop
  endfacet
  facet normal 0.156435 0.987688 -0
    outer loop
      vertex 4.68453 24.5572 0
      vertex 3.13333 24.8029 50
      vertex 4.68453 24.5572 50
    endloop
  endfacet
  facet normal 0.156435 0.987688 0
    outer loop
      vertex 3.13333 24.8029 50
      vertex 4.68453 24.5572 0
      vertex 3.13333 24.8029 0
    endloop
  endfacet
  facet normal 0.0941082 0.995562 -0
    outer loop
      vertex 3.13333 24.8029 0
      vertex 1.56976 24.9507 50
      vertex 3.13333 24.8029 50
    endloop
  endfacet
  facet normal 0.0941082 0.995562 0
    outer loop
      vertex 1.56976 24.9507 50
      vertex 3.13333 24.8029 0
      vertex 1.56976 24.9507 0
    endloop
  endfacet
  facet normal 0.0314107 0.999507 -0
    outer loop
      vertex 1.56976 24.9507 0
      vertex 1.53081e-15 25 50
      vertex 1.56976 24.9507 50
    endloop
  endfacet
  facet normal 0.0314107 0.999507 0
    outer loop
      vertex 1.53081e-15 25 50
      vertex 1.56976 24.9507 0
      vertex 1.53081e-15 25 0
    endloop
  endfacet
  facet normal -0.0314107 0.999507 0
    outer loop
      vertex 1.53081e-15 25 0
      vertex -1.56976 24.9507 50
      vertex 1.53081e-15 25 50
    endloop
  endfacet
  facet normal -0.0314107 0.999507 0
    outer loop
      vertex -1.56976 24.9507 50
      vertex 1.53081e-15 25 0
      vertex -1.56976 24.9507 0
    endloop
  endfacet
  facet normal -0.0941082 0.995562 0
    outer loop
      vertex -1.56976 24.9507 0
      vertex -3.13333 24.8029 50
      vertex -1.56976 24.9507 50
    endloop
  endfacet
  facet normal -0.0941082 0.995562 0
    outer loop
      vertex -3.13333 24.8029 50
      vertex -1.56976 24.9507 0
      vertex -3.13333 24.8029 0
    endloop
  endfacet
  facet normal -0.156435 0.987688 0
    outer loop
      vertex -3.13333 24.8029 0
      vertex -4.68453 24.5572 50
      vertex -3.13333 24.8029 50
    endloop
  endfacet
  facet normal -0.156435 0.987688 0
    outer loop
      vertex -4.68453 24.5572 50
      vertex -3.13333 24.8029 0
      vertex -4.68453 24.5572 0
    endloop
  endfacet
  facet normal -0.218143 0.975917 0
    outer loop
      vertex -4.68453 24.5572 0
      vertex -6.21725 24.2146 50
      vertex -4.68453 24.5572 50
    endloop
  endfacet
  facet normal -0.218143 0.975917 0
    outer loop
      vertex -6.21725 24.2146 50
      vertex -4.68453 24.5572 0
      vertex -6.21725 24.2146 0
    endloop
  endfacet
  facet normal -0.278991 0.960294 0
    outer loop
      vertex -6.21725 24.2146 0
      vertex -7.72542 23.7764 50
      vertex -6.21725 24.2146 50
    endloop
  endfacet
  facet normal -0.278991 0.960294 0
    outer loop
      vertex -7.72542 23.7764 50
      vertex -6.21725 24.2146 0
      vertex -7.72542 23.7764 0
    endloop
  endfacet
  facet normal -0.338738 0.940881 0
    outer loop
      vertex -7.72542 23.7764 0
      vertex -9.20311 23.2444 50
      vertex -7.72542 23.7764 50
    endloop
  endfacet
  facet normal -0.338738 0.940881 0
    outer loop
      vertex -9.20311 23.2444 50
      vertex -7.72542 23.7764 0
      vertex -9.20311 23.2444 0
    endloop
  endfacet
  facet normal -0.397148 0.917755 0
    outer loop
      vertex -9.20311 23.2444 0
      vertex -10.6445 22.6207 50
      vertex -9.20311 23.2444 50
    endloop
  endfacet
  facet normal -0.397148 0.917755 0
    outer loop
      vertex -10.6445 22.6207 50
      vertex -9.20311 23.2444 0
      vertex -10.6445 22.6207 0
    endloop
  endfacet
  facet normal -0.45399 0.891007 0
    outer loop
      vertex -10.6445 22.6207 0
      vertex -12.0438 21.9077 50
      vertex -10.6445 22.6207 50
    endloop
  endfacet
  facet normal -0.45399 0.891007 0
    outer loop
      vertex -12.0438 21.9077 50
      vertex -10.6445 22.6207 0
      vertex -12.0438 21.9077 0
    endloop
  endfacet
  facet normal -0.509042 0.860742 0
    outer loop
      vertex -12.0438 21.9077 0
      vertex -13.3957 21.1082 50
      vertex -12.0438 21.9077 50
    endloop
  endfacet
  facet normal -0.509042 0.860742 0
    outer loop
      vertex -13.3957 21.1082 50
      vertex -12.0438 21.9077 0
      vertex -13.3957 21.1082 0
    endloop
  endfacet
  facet normal -0.562083 0.827081 0
    outer loop
      vertex -13.3957 21.1082 0
      vertex -14.6946 20.2254 50
      vertex -13.3957 21.1082 50
    endloop
  endfacet
  facet normal -0.562083 0.827081 0
    outer loop
      vertex -14.6946 20.2254 50
      vertex -13.3957 21.1082 0
      vertex -14.6946 20.2254 0
    endloop
  endfacet
  facet normal -0.612908 0.790154 0
    outer loop
      vertex -14.6946 20.2254 0
      vertex -15.9356 19.2628 50
      vertex -14.6946 20.2254 50
    endloop
  endfacet
  facet normal -0.612908 0.790154 0
    outer loop
      vertex -15.9356 19.2628 50
      vertex -14.6946 20.2254 0
      vertex -15.9356 19.2628 0
    endloop
  endfacet
  facet normal -0.661311 0.750112 0
    outer loop
      vertex -15.9356 19.2628 0
      vertex -17.1137 18.2242 50
      vertex -15.9356 19.2628 50
    endloop
  endfacet
  facet normal -0.661311 0.750112 0
    outer loop
      vertex -17.1137 18.2242 50
      vertex -15.9356 19.2628 0
      vertex -17.1137 18.2242 0
    endloop
  endfacet
  facet normal -0.707107 0.707107 0
    outer loop
      vertex -18.2242 17.1137 0
      vertex -17.1137 18.2242 50
      vertex -17.1137 18.2242 0
    endloop
  endfacet
  facet normal -0.707107 0.707107 0
    outer loop
      vertex -17.1137 18.2242 50
      vertex -18.2242 17.1137 0
      vertex -18.2242 17.1137 50
    endloop
  endfacet
  facet normal -0.750112 0.661311 0
    outer loop
      vertex -19.2628 15.9356 0
      vertex -18.2242 17.1137 50
      vertex -18.2242 17.1137 0
    endloop
  endfacet
  facet normal -0.750112 0.661311 0
    outer loop
      vertex -18.2242 17.1137 50
      vertex -19.2628 15.9356 0
      vertex -19.2628 15.9356 50
    endloop
  endfacet
  facet normal -0.790154 0.612908 0
    outer loop
      vertex -20.2254 14.6946 0
      vertex -19.2628 15.9356 50
      vertex -19.2628 15.9356 0
    endloop
  endfacet
  facet normal -0.790154 0.612908 0
    outer loop
      vertex -19.2628 15.9356 50
      vertex -20.2254 14.6946 0
      vertex -20.2254 14.6946 50
    endloop
  endfacet
  facet normal -0.827081 0.562083 0
    outer loop
      vertex -21.1082 13.3957 0
      vertex -20.2254 14.6946 50
      vertex -20.2254 14.6946 0
    endloop
  endfacet
  facet normal -0.827081 0.562083 0
    outer loop
      vertex -20.2254 14.6946 50
      vertex -21.1082 13.3957 0
      vertex -21.1082 13.3957 50
    endloop
  endfacet
  facet normal -0.860742 0.509042 0
    outer loop
      vertex -21.9077 12.0438 0
      vertex -21.1082 13.3957 50
      vertex -21.1082 13.3957 0
    endloop
  endfacet
  facet normal -0.860742 0.509042 0
    outer loop
      vertex -21.1082 13.3957 50
      vertex -21.9077 12.0438 0
      vertex -21.9077 12.0438 50
    endloop
  endfacet
  facet normal -0.891007 0.45399 0
    outer loop
      vertex -22.6207 10.6445 0
      vertex -21.9077 12.0438 50
      vertex -21.9077 12.0438 0
    endloop
  endfacet
  facet normal -0.891007 0.45399 0
    outer loop
      vertex -21.9077 12.0438 50
      vertex -22.6207 10.6445 0
      vertex -22.6207 10.6445 50
    endloop
  endfacet
  facet normal -0.917755 0.397148 0
    outer loop
      vertex -23.2444 9.20311 0
      vertex -22.6207 10.6445 50
      vertex -22.6207 10.6445 0
    endloop
  endfacet
  facet normal -0.917755 0.397148 0
    outer loop
      vertex -22.6207 10.6445 50
      vertex -23.2444 9.20311 0
      vertex -23.2444 9.20311 50
    endloop
  endfacet
  facet normal -0.940881 0.338738 0
    outer loop
      vertex -23.7764 7.72542 0
      vertex -23.2444 9.20311 50
      vertex -23.2444 9.20311 0
    endloop
  endfacet
  facet normal -0.940881 0.338738 0
    outer loop
      vertex -23.2444 9.20311 50
      vertex -23.7764 7.72542 0
      vertex -23.7764 7.72542 50
    endloop
  endfacet
  facet normal -0.960294 0.278991 0
    outer loop
      vertex -24.2146 6.21725 0
      vertex -23.7764 7.72542 50
      vertex -23.7764 7.72542 0
    endloop
  endfacet
  facet normal -0.960294 0.278991 0
    outer loop
      vertex -23.7764 7.72542 50
      vertex -24.2146 6.21725 0
      vertex -24.2146 6.21725 50
    endloop
  endfacet
  facet normal -0.975917 0.218143 0
    outer loop
      vertex -24.5572 4.68453 0
      vertex -24.2146 6.21725 50
      vertex -24.2146 6.21725 0
    endloop
  endfacet
  facet normal -0.975917 0.218143 0
    outer loop
      vertex -24.2146 6.21725 50
      vertex -24.5572 4.68453 0
      vertex -24.5572 4.68453 50
    endloop
  endfacet
  facet normal -0.987688 0.156435 0
    outer loop
      vertex -24.8029 3.13333 0
      vertex -24.5572 4.68453 50
      vertex -24.5572 4.68453 0
    endloop
  endfacet
  facet normal -0.987688 0.156435 0
    outer loop
      vertex -24.5572 4.68453 50
      vertex -24.8029 3.13333 0
      vertex -24.8029 3.13333 50
    endloop
  endfacet
  facet normal -0.995562 0.0941082 0
    outer loop
      vertex -24.9507 1.56976 0
      vertex -24.8029 3.13333 50
      vertex -24.8029 3.13333 0
    endloop
  endfacet
  facet normal -0.995562 0.0941082 0
    outer loop
      vertex -24.8029 3.13333 50
      vertex -24.9507 1.56976 0
      vertex -24.9507 1.56976 50
    endloop
  endfacet
  facet normal -0.999507 0.0314107 0
    outer loop
      vertex -25 3.06162e-15 0
      vertex -24.9507 1.56976 50
      vertex -24.9507 1.56976 0
    endloop
  endfacet
  facet normal -0.999507 0.0314107 0
    outer loop
      vertex -24.9507 1.56976 50
      vertex -25 3.06162e-15 0
      vertex -25 3.06162e-15 50
    endloop
  endfacet
  facet normal -0.999507 -0.0314107 0
    outer loop
      vertex -24.9507 -1.56976 0
      vertex -25 3.06162e-15 50
      vertex -25 3.06162e-15 0
    endloop
  endfacet
  facet normal -0.999507 -0.0314107 0
    outer loop
      vertex -25 3.06162e-15 50
      vertex -24.9507 -1.56976 0
      vertex -24.9507 -1.56976 50
    endloop
  endfacet
  facet normal -0.995562 -0.0941082 0
    outer loop
      vertex -24.8029 -3.13333 0
      vertex -24.9507 -1.56976 50
      vertex -24.9507 -1.56976 0
    endloop
  endfacet
  facet normal -0.995562 -0.0941082 0
    outer loop
      vertex -24.9507 -1.56976 50
      vertex -24.8029 -3.13333 0
      vertex -24.8029 -3.13333 50
    endloop
  endfacet
  facet normal -0.987688 -0.156435 0
    outer loop
      vertex -24.5572 -4.68453 0
      vertex -24.8029 -3.13333 50
      vertex -24.8029 -3.13333 0
    endloop
  endfacet
  facet normal -0.987688 -0.156435 0
    outer loop
      vertex -24.8029 -3.13333 50
      vertex -24.5572 -4.68453 0
      vertex -24.5572 -4.68453 50
    endloop
  endfacet
  facet normal -0.975917 -0.218143 0
    outer loop
      vertex -24.2146 -6.21725 0
      vertex -24.5572 -4.68453 50
      vertex -24.5572 -4.68453 0
    endloop
  endfacet
  facet normal -0.975917 -0.218143 0
    outer loop
      vertex -24.5572 -4.68453 50
      vertex -24.2146 -6.21725 0
      vertex -24.2146 -6.21725 50
    endloop
  endfacet
  facet normal -0.960294 -0.278991 0
    outer loop
      vertex -23.7764 -7.72542 0
      vertex -24.2146 -6.21725 50
      vertex -24.2146 -6.21725 0
    endloop
  endfacet
  facet normal -0.960294 -0.278991 0
    outer loop
      vertex -24.2146 -6.21725 50
      vertex -23.7764 -7.72542 0
      vertex -23.7764 -7.72542 50
    endloop
  endfacet
  facet normal -0.940881 -0.338738 0
    outer loop
      vertex -23.2444 -9.20311 0
      vertex -23.7764 -7.72542 50
      vertex -23.7764 -7.72542 0
    endloop
  endfacet
  facet normal -0.940881 -0.338738 0
    outer loop
      vertex -23.7764 -7.72542 50
      vertex -23.2444 -9.20311 0
      vertex -23.2444 -9.20311 50
    endloop
  endfacet
  facet normal -0.917755 -0.397148 0
    outer loop
      vertex -22.6207 -10.6445 0
      vertex -23.2444 -9.20311 50
      vertex -23.2444 -9.20311 0
    endloop
  endfacet
  facet normal -0.917755 -0.397148 0
    outer loop
      vertex -23.2444 -9.20311 50
      vertex -22.6207 -10.6445 0
      vertex -22.6207 -10.6445 50
    endloop
  endfacet
  facet normal -0.891007 -0.45399 0
    outer loop
      vertex -21.9077 -12.0438 0
      vertex -22.6207 -10.6445 50
      vertex -22.6207 -10.6445 0
    endloop
  endfacet
  facet normal -0.891007 -0.45399 0
    outer loop
      vertex -22.6207 -10.6445 50
      vertex -21.9077 -12.0438 0
      vertex -21.9077 -12.0438 50
    endloop
  endfacet
  facet normal -0.860742 -0.509042 0
    outer loop
      vertex -21.1082 -13.3957 0
      vertex -21.9077 -12.0438 50
      vertex -21.9077 -12.0438 0
    endloop
  endfacet
  facet normal -0.860742 -0.509042 0
    outer loop
      vertex -21.9077 -12.0438 50
      vertex -21.1082 -13.3957 0
      vertex -21.1082 -13.3957 50
    endloop
  endfacet
  facet normal -0.827081 -0.562083 0
    outer loop
      vertex -20.2254 -14.6946 0
      vertex -21.1082 -13.3957 50
      vertex -21.1082 -13.3957 0
    endloop
  endfacet
  facet normal -0.827081 -0.562083 0
    outer loop
      vertex -21.1082 -13.3957 50
      vertex -20.2254 -14.6946 0
      vertex -20.2254 -14.6946 50
    endloop
  endfacet
  facet normal -0.790154 -0.612908 0
    outer loop
      vertex -19.2628 -15.9356 0
      vertex -20.2254 -14.6946 50
      vertex -20.2254 -14.6946 0
    endloop
  endfacet
  facet normal -0.790154 -0.612908 0
    outer loop
      vertex -20.2254 -14.6946 50
      vertex -19.2628 -15.9356 0
      vertex -19.2628 -15.9356 50
    endloop
  endfacet
  facet normal -0.750112 -0.661311 0
    outer loop
      vertex -18.2242 -17.1137 0
      vertex -19.2628 -15.9356 50
      vertex -19.2628 -15.9356 0
    endloop
  endfacet
  facet normal -0.750112 -0.661311 0
    outer loop
      vertex -19.2628 -15.9356 50
      vertex -18.2242 -17.1137 0
      vertex -18.2242 -17.1137 50
    endloop
  endfacet
  facet normal -0.707107 -0.707107 0
    outer loop
      vertex -17.1137 -18.2242 0
      vertex -18.2242 -17.1137 50
      vertex -18.2242 -17.1137 0
    endloop
  endfacet
  facet normal -0.707107 -0.707107 0
    outer loop
      vertex -18.2242 -17.1137 50
      vertex -17.1137 -18.2242 0
      vertex -17.1137 -18.2242 50
    endloop
  endfacet
  facet normal -0.661311 -0.750112 0
    outer loop
      vertex -17.1137 -18.2242 0
      vertex -15.9356 -19.2628 50
      vertex -17.1137 -18.2242 50
    endloop
  endfacet
  facet normal -0.661311 -0.750112 -0
    outer loop
      vertex -15.9356 -19.2628 50
      vertex -17.1137 -18.2242 0
      vertex -15.9356 -19.2628 0
    endloop
  endfacet
  facet normal -0.612908 -0.790154 0
    outer loop
      vertex -15.9356 -19.2628 0
      vertex -14.6946 -20.2254 50
      vertex -15.9356 -19.2628 50
    endloop
  endfacet
  facet normal -0.612908 -0.790154 -0
    outer loop
      vertex -14.6946 -20.2254 50
      vertex -15.9356 -19.2628 0
      vertex -14.6946 -20.2254 0
    endloop
  endfacet
  facet normal -0.562083 -0.827081 0
    outer loop
      vertex -14.6946 -20.2254 0
      vertex -13.3957 -21.1082 50
      vertex -14.6946 -20.2254 50
    endloop
  endfacet
  facet normal -0.562083 -0.827081 -0
    outer loop
      vertex -13.3957 -21.1082 50
      vertex -14.6946 -20.2254 0
      vertex -13.3957 -21.1082 0
    endloop
  endfacet
  facet normal -0.509042 -0.860742 0
    outer loop
      vertex -13.3957 -21.1082 0
      vertex -12.0438 -21.9077 50
      vertex -13.3957 -21.1082 50
    endloop
  endfacet
  facet normal -0.509042 -0.860742 -0
    outer loop
      vertex -12.0438 -21.9077 50
      vertex -13.3957 -21.1082 0
      vertex -12.0438 -21.9077 0
    endloop
  endfacet
  facet normal -0.45399 -0.891007 0
    outer loop
      vertex -12.0438 -21.9077 0
      vertex -10.6445 -22.6207 50
      vertex -12.0438 -21.9077 50
    endloop
  endfacet
  facet normal -0.45399 -0.891007 -0
    outer loop
      vertex -10.6445 -22.6207 50
      vertex -12.0438 -21.9077 0
      vertex -10.6445 -22.6207 0
    endloop
  endfacet
  facet normal -0.397148 -0.917755 0
    outer loop
      vertex -10.6445 -22.6207 0
      vertex -9.20311 -23.2444 50
      vertex -10.6445 -22.6207 50
    endloop
  endfacet
  facet normal -0.397148 -0.917755 -0
    outer loop
      vertex -9.20311 -23.2444 50
      vertex -10.6445 -22.6207 0
      vertex -9.20311 -23.2444 0
    endloop
  endfacet
  facet normal -0.338738 -0.940881 0
    outer loop
      vertex -9.20311 -23.2444 0
      vertex -7.72542 -23.7764 50
      vertex -9.20311 -23.2444 50
    endloop
  endfacet
  facet normal -0.338738 -0.940881 -0
    outer loop
      vertex -7.72542 -23.7764 50
      vertex -9.20311 -23.2444 0
      vertex -7.72542 -23.7764 0
    endloop
  endfacet
  facet normal -0.278991 -0.960294 0
    outer loop
      vertex -7.72542 -23.7764 0
      vertex -6.21725 -24.2146 50
      vertex -7.72542 -23.7764 50
    endloop
  endfacet
  facet normal -0.278991 -0.960294 -0
    outer loop
      vertex -6.21725 -24.2146 50
      vertex -7.72542 -23.7764 0
      vertex -6.21725 -24.2146 0
    endloop
  endfacet
  facet normal -0.218143 -0.975917 0
    outer loop
      vertex -6.21725 -24.2146 0
      vertex -4.68453 -24.5572 50
      vertex -6.21725 -24.2146 50
    endloop
  endfacet
  facet normal -0.218143 -0.975917 -0
    outer loop
      vertex -4.68453 -24.5572 50
      vertex -6.21725 -24.2146 0
      vertex -4.68453 -24.5572 0
    endloop
  endfacet
  facet normal -0.156435 -0.987688 0
    outer loop
      vertex -4.68453 -24.5572 0
      vertex -3.13333 -24.8029 50
      vertex -4.68453 -24.5572 50
    endloop
  endfacet
  facet normal -0.156435 -0.987688 -0
    outer loop
      vertex -3.13333 -24.8029 50
      vertex -4.68453 -24.5572 0
      vertex -3.13333 -24.8029 0
    endloop
  endfacet
  facet normal -0.0941082 -0.995562 0
    outer loop
      vertex -3.13333 -24.8029 0
      vertex -1.56976 -24.9507 50
      vertex -3.13333 -24.8029 50
    endloop
  endfacet
  facet normal -0.0941082 -0.995562 -0
    outer loop
      vertex -1.56976 -24.9507 50
      vertex -3.13333 -24.8029 0
      vertex -1.56976 -24.9507 0
    endloop
  endfacet
  facet normal -0.0314107 -0.999507 0
    outer loop
      vertex -1.56976 -24.9507 0
      vertex -4.59243e-15 -25 50
      vertex -1.56976 -24.9507 50
    endloop
  endfacet
  facet normal -0.0314107 -0.999507 -0
    outer loop
      vertex -4.59243e-15 -25 50
      vertex -1.56976 -24.9507 0
      vertex -4.59243e-15 -25 0
    endloop
  endfacet
  facet normal 0.0314107 -0.999507 0
    outer loop
      vertex -4.59243e-15 -25 0
      vertex 1.56976 -24.9507 50
      vertex -4.59243e-15 -25 50
    endloop
  endfacet
  facet normal 0.0314107 -0.999507 0
    outer loop
      vertex 1.56976 -24.9507 50
      vertex -4.59243e-15 -25 0
      vertex 1.56976 -24.9507 0
    endloop
  endfacet
  facet normal 0.0941082 -0.995562 0
    outer loop
      vertex 1.56976 -24.9507 0
      vertex 3.13333 -24.8029 50
      vertex 1.56976 -24.9507 50
    endloop
  endfacet
  facet normal 0.0941082 -0.995562 0
    outer loop
      vertex 3.13333 -24.8029 50
      vertex 1.56976 -24.9507 0
      vertex 3.13333 -24.8029 0
    endloop
  endfacet
  facet normal 0.156435 -0.987688 0
    outer loop
      vertex 3.13333 -24.8029 0
      vertex 4.68453 -24.5572 50
      vertex 3.13333 -24.8029 50
    endloop
  endfacet
  facet normal 0.156435 -0.987688 0
    outer loop
      vertex 4.68453 -24.5572 50
      vertex 3.13333 -24.8029 0
      vertex 4.68453 -24.5572 0
    endloop
  endfacet
  facet normal 0.218143 -0.975917 0
    outer loop
      vertex 4.68453 -24.5572 0
      vertex 6.21725 -24.2146 50
      vertex 4.68453 -24.5572 50
    endloop
  endfacet
  facet normal 0.218143 -0.975917 0
    outer loop
      vertex 6.21725 -24.2146 50
      vertex 4.68453 -24.5572 0
      vertex 6.21725 -24.2146 0
    endloop
  endfacet
  facet normal 0.278991 -0.960294 0
    outer loop
      vertex 6.21725 -24.2146 0
      vertex 7.72542 -23.7764 50
      vertex 6.21725 -24.2146 50
    endloop
  endfacet
  facet normal 0.278991 -0.960294 0
    outer loop
      vertex 7.72542 -23.7764 50
      vertex 6.21725 -24.2146 0
      vertex 7.72542 -23.7764 0
    endloop
  endfacet
  facet normal 0.338738 -0.940881 0
    outer loop
      vertex 7.72542 -23.7764 0
      vertex 9.20311 -23.2444 50
      vertex 7.72542 -23.7764 50
    endloop
  endfacet
  facet normal 0.338738 -0.940881 0
    outer loop
      vertex 9.20311 -23.2444 50
      vertex 7.72542 -23.7764 0
      vertex 9.20311 -23.2444 0
    endloop
  endfacet
  facet normal 0.397148 -0.917755 0
    outer loop
      vertex 9.20311 -23.2444 0
      vertex 10.6445 -22.6207 50
      vertex 9.20311 -23.2444 50
    endloop
  endfacet
  facet normal 0.397148 -0.917755 0
    outer loop
      vertex 10.6445 -22.6207 50
      vertex 9.20311 -23.2444 0
      vertex 10.6445 -22.6207 0
    endloop
  endfacet
  facet normal 0.45399 -0.891007 0
    outer loop
      vertex 10.6445 -22.6207 0
      vertex 12.0438 -21.9077 50
      vertex 10.6445 -22.6207 50
    endloop
  endfacet
  facet normal 0.45399 -0.891007 0
    outer loop
      vertex 12.0438 -21.9077 50
      vertex 10.6445 -22.6207 0
      vertex 12.0438 -21.9077 0
    endloop
  endfacet
  facet normal 0.509042 -0.860742 0
    outer loop
      vertex 12.0438 -21.9077 0
      vertex 13.3957 -21.1082 50
      vertex 12.0438 -21.9077 50
    endloop
  endfacet
  facet normal 0.509042 -0.860742 0
    outer loop
      vertex 13.3957 -21.1082 50
      vertex 12.0438 -21.9077 0
      vertex 13.3957 -21.1082 0
    endloop
  endfacet
  facet normal 0.562083 -0.827081 0
    outer loop
      vertex 13.3957 -21.1082 0
      vertex 14.6946 -20.2254 50
      vertex 13.3957 -21.1082 50
    endloop
  endfacet
  facet normal 0.562083 -0.827081 0
    outer loop
      vertex 14.6946 -20.2254 50
      vertex 13.3957 -21.1082 0
      vertex 14.6946 -20.2254 0
    endloop
  endfacet
  facet normal 0.612908 -0.790154 0
    outer loop
      vertex 14.6946 -20.2254 0
      vertex 15.9356 -19.2628 50
      vertex 14.6946 -20.2254 50
    endloop
  endfacet
  facet normal 0.612908 -0.790154 0
    outer loop
      vertex 15.9356 -19.2628 50
      vertex 14.6946 -20.2254 0
      vertex 15.9356 -19.2628 0
    endloop
  endfacet
  facet normal 0.661311 -0.750112 0
    outer loop
      vertex 15.9356 -19.2628 0
      vertex 17.1137 -18.2242 50
      vertex 15.9356 -19.2628 50
    endloop
  endfacet
  facet normal 0.661311 -0.750112 0
    outer loop
      vertex 17.1137 -18.2242 50
      vertex 15.9356 -19.2628 0
      vertex 17.1137 -18.2242 0
    endloop
  endfacet
  facet normal 0.707107 -0.707107 0
    outer loop
      vertex 17.1137 -18.2242 50
      vertex 18.2242 -17.1137 0
      vertex 18.2242 -17.1137 50
    endloop
  endfacet
  facet normal 0.707107 -0.707107 0
    outer loop
      vertex 18.2242 -17.1137 0
      vertex 17.1137 -18.2242 50
      vertex 17.1137 -18.2242 0
    endloop
  endfacet
  facet normal 0.750112 -0.661311 0
    outer loop
      vertex 18.2242 -17.1137 50
      vertex 19.2628 -15.9356 0
      vertex 19.2628 -15.9356 50
    endloop
  endfacet
  facet normal 0.750112 -0.661311 0
    outer loop
      vertex 19.2628 -15.9356 0
      vertex 18.2242 -17.1137 50
      vertex 18.2242 -17.1137 0
    endloop
  endfacet
  facet normal 0.790154 -0.612908 0
    outer loop
      vertex 19.2628 -15.9356 50
      vertex 20.2254 -14.6946 0
      vertex 20.2254 -14.6946 50
    endloop
  endfacet
  facet normal 0.790154 -0.612908 0
    outer loop
      vertex 20.2254 -14.6946 0
      vertex 19.2628 -15.9356 50
      vertex 19.2628 -15.9356 0
    endloop
  endfacet
  facet normal 0.827081 -0.562083 0
    outer loop
      vertex 20.2254 -14.6946 50
      vertex 21.1082 -13.3957 0
      vertex 21.1082 -13.3957 50
    endloop
  endfacet
  facet normal 0.827081 -0.562083 0
    outer loop
      vertex 21.1082 -13.3957 0
      vertex 20.2254 -14.6946 50
      vertex 20.2254 -14.6946 0
    endloop
  endfacet
  facet normal 0.860742 -0.509042 0
    outer loop
      vertex 21.1082 -13.3957 50
      vertex 21.9077 -12.0438 0
      vertex 21.9077 -12.0438 50
    endloop
  endfacet
  facet normal 0.860742 -0.509042 0
    outer loop
      vertex 21.9077 -12.0438 0
      vertex 21.1082 -13.3957 50
      vertex 21.1082 -13.3957 0
    endloop
  endfacet
  facet normal 0.891007 -0.45399 0
    outer loop
      vertex 21.9077 -12.0438 50
      vertex 22.6207 -10.6445 0
      vertex 22.6207 -10.6445 50
    endloop
  endfacet
  facet normal 0.891007 -0.45399 0
    outer loop
      vertex 22.6207 -10.6445 0
      vertex 21.9077 -12.0438 50
      vertex 21.9077 -12.0438 0
    endloop
  endfacet
  facet normal 0.917755 -0.397148 0
    outer loop
      vertex 22.6207 -10.6445 50
      vertex 23.2444 -9.20311 0
      vertex 23.2444 -9.20311 50
    endloop
  endfacet
  facet normal 0.917755 -0.397148 0
    outer loop
      vertex 23.2444 -9.20311 0
      vertex 22.6207 -10.6445 50
      vertex 22.6207 -10.6445 0
    endloop
  endfacet
  facet normal 0.940881 -0.338738 0
    outer loop
      vertex 23.2444 -9.20311 50
      vertex 23.7764 -7.72542 0
      vertex 23.7764 -7.72542 50
    endloop
  endfacet
  facet normal 0.940881 -0.338738 0
    outer loop
      vertex 23.7764 -7.72542 0
      vertex 23.2444 -9.20311 50
      vertex 23.2444 -9.20311 0
    endloop
  endfacet
  facet normal 0.960294 -0.278991 0
    outer loop
      vertex 23.7764 -7.72542 50
      vertex 24.2146 -6.21725 0
      vertex 24.2146 -6.21725 50
    endloop
  endfacet
  facet normal 0.960294 -0.278991 0
    outer loop
      vertex 24.2146 -6.21725 0
      vertex 23.7764 -7.72542 50
      vertex 23.7764 -7.72542 0
    endloop
  endfacet
  facet normal 0.975917 -0.218143 0
    outer loop
      vertex 24.2146 -6.21725 50
      vertex 24.5572 -4.68453 0
      vertex 24.5572 -4.68453 50
    endloop
  endfacet
  facet normal 0.975917 -0.218143 0
    outer loop
      vertex 24.5572 -4.68453 0
      vertex 24.2146 -6.21725 50
      vertex 24.2146 -6.21725 0
    endloop
  endfacet
  facet normal 0.987688 -0.156435 0
    outer loop
      vertex 24.5572 -4.68453 50
      vertex 24.8029 -3.13333 0
      vertex 24.8029 -3.13333 50
    endloop
  endfacet
  facet normal 0.987688 -0.156435 0
    outer loop
      vertex 24.8029 -3.13333 0
      vertex 24.5572 -4.68453 50
      vertex 24.5572 -4.68453 0
    endloop
  endfacet
  facet normal 0.995562 -0.0941082 0
    outer loop
      vertex 24.8029 -3.13333 50
      vertex 24.9507 -1.56976 0
      vertex 24.9507 -1.56976 50
    endloop
  endfacet
  facet normal 0.995562 -0.0941082 0
    outer loop
      vertex 24.9507 -1.56976 0
      vertex 24.8029 -3.13333 50
      vertex 24.8029 -3.13333 0
    endloop
  endfacet
  facet normal 0.999507 -0.0314107 0
    outer loop
      vertex 24.9507 -1.56976 50
      vertex 25 0 0
      vertex 25 0 50
    endloop
  endfacet
  facet normal 0.999507 -0.0314107 0
    outer loop
      vertex 25 0 0
      vertex 24.9507 -1.56976 50
      vertex 24.9507 -1.56976 0
    endloop
  endfacet
  facet normal 0 0 -1
    outer loop
      vertex 24.9507 -1.56976 0
      vertex 24.9507 1.56976 0
      vertex 25 0 0
    endloop
  endfacet
  facet normal 0 0 -1
    outer loop
      vertex 24.8029 -3.13333 0
      vertex 24.9507 1.56976 0
      vertex 24.9507 -1.56976 0
    endloop
  endfacet
  facet normal 0 0 -1
    outer loop
      vertex 24.8029 -3.13333 0
      vertex 24.8029 3.13333 0
      vertex 24.9507 1.56976 0
    endloop
  endfacet
  facet normal 0 0 -1
    outer loop
      vertex 24.5572 -4.68453 0
      vertex 24.8029 3.13333 0
      vertex 24.8029 -3.13333 0
    endloop
  endfacet
  facet normal 0 0 -1
    outer loop
      vertex 24.5572 -4.68453 0
      vertex 24.5572 4.68453 0
      vertex 24.8029 3.13333 0
    endloop
  endfacet
  facet normal 0 0 -1
    outer loop
      vertex 24.2146 -6.21725 0
      vertex 24.5572 4.68453 0
      vertex 24.5572 -4.68453 0
    endloop
  endfacet
  facet normal 0 0 -1
    outer loop
      vertex 24.2146 -6.21725 0
      vertex 24.2146 6.21725 0
      vertex 24.5572 4.68453 0
    endloop
  endfacet
  facet normal 0 0 -1
    outer loop
      vertex 23.7764 -7.72542 0
      vertex 24.2146 6.21725 0
      vertex 24.2146 -6.21725 0
    endloop
  endfacet
  facet normal 0 0 -1
    outer loop
      vertex 23.7764 -7.72542 0
      vertex 23.7764 7.72542 0
      vertex 24.2146 6.21725 0
    endloop
  endfacet
  facet normal 0 0 -1
    outer loop
      vertex 23.2444 -9.20311 0
      vertex 23.7764 7.72542 0
      vertex 23.7764 -7.72542 0
    endloop
  endfacet
  facet normal 0 0 -1
    outer loop
      vertex 23.2444 -9.20311 0
      vertex 23.2444 9.20311 0
      vertex 23.7764 7.72542 0
    endloop
  endfacet
  facet normal 0 0 -1
    outer loop
      vertex 22.6207 -10.6445 0
      vertex 23.2444 9.20311 0
      vertex 23.2444 -9.20311 0
    endloop
  endfacet
  facet normal 0 0 -1
    outer loop
      vertex 22.6207 -10.6445 0
      vertex 22.6207 10.6445 0
      vertex 23.2444 9.20311 0
    endloop
  endfacet
  facet normal 0 0 -1
    outer loop
      vertex 21.9077 -12.0438 0
      vertex 22.6207 10.6445 0
      vertex 22.6207 -10.6445 0
    endloop
  endfacet
  facet normal 0 0 -1
    outer loop
      vertex 21.9077 -12.0438 0
      vertex 21.9077 12.0438 0
      vertex 22.6207 10.6445 0
    endloop
  endfacet
  facet normal 0 0 -1
    outer loop
      vertex 21.1082 -13.3957 0
      vertex 21.9077 12.0438 0
      vertex 21.9077 -12.0438 0
    endloop
  endfacet
  facet normal 0 0 -1
    outer loop
      vertex 21.1082 -13.3957 0
      vertex 21.1082 13.3957 0
      vertex 21.9077 12.0438 0
    endloop
  endfacet
  facet normal 0 0 -1
    outer loop
      vertex 20.2254 -14.6946 0
      vertex 21.1082 13.3957 0
      vertex 21.1082 -13.3957 0
    endloop
  endfacet
  facet normal 0 0 -1
    outer loop
      vertex 20.2254 -14.6946 0
      vertex 20.2254 14.6946 0
      vertex 21.1082 13.3957 0
    endloop
  endfacet
  facet normal 0 0 -1
    outer loop
      vertex 19.2628 -15.9356 0
      vertex 20.2254 14.6946 0
      vertex 20.2254 -14.6946 0
    endloop
  endfacet
  facet normal 0 0 -1
    outer loop
      vertex 19.2628 -15.9356 0
      vertex 19.2628 15.9356 0
      vertex 20.2254 14.6946 0
    endloop
  endfacet
  facet normal 0 0 -1
    outer loop
      vertex 18.2242 -17.1137 0
      vertex 19.2628 15.9356 0
      vertex 19.2628 -15.9356 0
    endloop
  endfacet
  facet normal 0 0 -1
    outer loop
      vertex 18.2242 -17.1137 0
      vertex 18.2242 17.1137 0
      vertex 19.2628 15.9356 0
    endloop
  endfacet
  facet normal 0 0 -1
    outer loop
      vertex 17.1137 -18.2242 0
      vertex 18.2242 17.1137 0
      vertex 18.2242 -17.1137 0
    endloop
  endfacet
  facet normal 0 0 -1
    outer loop
      vertex 17.1137 -18.2242 0
      vertex 17.1137 18.2242 0
      vertex 18.2242 17.1137 0
    endloop
  endfacet
  facet normal 0 0 -1
    outer loop
      vertex 15.9356 -19.2628 0
      vertex 17.1137 18.2242 0
      vertex 17.1137 -18.2242 0
    endloop
  endfacet
  facet normal 0 0 -1
    outer loop
      vertex 15.9356 -19.2628 0
      vertex 15.9356 19.2628 0
      vertex 17.1137 18.2242 0
    endloop
  endfacet
  facet normal 0 0 -1
    outer loop
      vertex 14.6946 -20.2254 0
      vertex 15.9356 19.2628 0
      vertex 15.9356 -19.2628 0
    endloop
  endfacet
  facet normal 0 0 -1
    outer loop
      vertex 14.6946 -20.2254 0
      vertex 14.6946 20.2254 0
      vertex 15.9356 19.2628 0
    endloop
  endfacet
  facet normal 0 0 -1
    outer loop
      vertex 13.3957 -21.1082 0
      vertex 14.6946 20.2254 0
      vertex 14.6946 -20.2254 0
    endloop
  endfacet
  facet normal 0 0 -1
    outer loop
      vertex 13.3957 -21.1082 0
      vertex 13.3957 21.1082 0
      vertex 14.6946 20.2254 0
    endloop
  endfacet
  facet normal 0 0 -1
    outer loop
      vertex 12.0438 -21.9077 0
      vertex 13.3957 21.1082 0
      vertex 13.3957 -21.1082 0
    endloop
  endfacet
  facet normal 0 0 -1
    outer loop
      vertex 12.0438 -21.9077 0
      vertex 12.0438 21.9077 0
      vertex 13.3957 21.1082 0
    endloop
  endfacet
  facet normal 0 0 -1
    outer loop
      vertex 10.6445 -22.6207 0
      vertex 12.0438 21.9077 0
      vertex 12.0438 -21.9077 0
    endloop
  endfacet
  facet normal 0 0 -1
    outer loop
      vertex 10.6445 -22.6207 0
      vertex 10.6445 22.6207 0
      vertex 12.0438 21.9077 0
    endloop
  endfacet
  facet normal 0 0 -1
    outer loop
      vertex 9.20311 -23.2444 0
      vertex 10.6445 22.6207 0
      vertex 10.6445 -22.6207 0
    endloop
  endfacet
  facet normal 0 0 -1
    outer loop
      vertex 9.20311 -23.2444 0
      vertex 9.20311 23.2444 0
      vertex 10.6445 22.6207 0
    endloop
  endfacet
  facet normal 0 0 -1
    outer loop
      vertex 7.72542 -23.7764 0
      vertex 9.20311 23.2444 0
      vertex 9.20311 -23.2444 0
    endloop
  endfacet
  facet normal 0 0 -1
    outer loop
      vertex 7.72542 -23.7764 0
      vertex 7.72542 23.7764 0
      vertex 9.20311 23.2444 0
    endloop
  endfacet
  facet normal 0 0 -1
    outer loop
      vertex 6.21725 -24.2146 0
      vertex 7.72542 23.7764 0
      vertex 7.72542 -23.7764 0
    endloop
  endfacet
  facet normal 0 0 -1
    outer loop
      vertex 6.21725 -24.2146 0
      vertex 6.21725 24.2146 0
      vertex 7.72542 23.7764 0
    endloop
  endfacet
  facet normal 0 0 -1
    outer loop
      vertex 4.68453 -24.5572 0
      vertex 6.21725 24.2146 0
      vertex 6.21725 -24.2146 0
    endloop
  endfacet
  facet normal 0 0 -1
    outer loop
      vertex 4.68453 -24.5572 0
      vertex 4.68453 24.5572 0
      vertex 6.21725 24.2146 0
    endloop
  endfacet
  facet normal 0 0 -1
    outer loop
      vertex 3.13333 -24.8029 0
      vertex 4.68453 24.5572 0
      vertex 4.68453 -24.5572 0
    endloop
  endfacet
  facet normal 0 0 -1
    outer loop
      vertex 3.13333 -24.8029 0
      vertex 3.13333 24.8029 0
      vertex 4.68453 24.5572 0
    endloop
  endfacet
  facet normal 0 0 -1
    outer loop
      vertex 1.56976 -24.9507 0
      vertex 3.13333 24.8029 0
      vertex 3.13333 -24.8029 0
    endloop
  endfacet
  facet normal 0 0 -1
    outer loop
      vertex 1.56976 -24.9507 0
      vertex 1.56976 24.9507 0
      vertex 3.13333 24.8029 0
    endloop
  endfacet
  facet normal 0 0 -1
    outer loop
      vertex 1.56976 -24.9507 0
      vertex 1.53081e-15 25 0
      vertex 1.56976 24.9507 0
    endloop
  endfacet
  facet normal 0 0 -1
    outer loop
      vertex -4.59243e-15 -25 0
      vertex 1.53081e-15 25 0
      vertex 1.56976 -24.9507 0
    endloop
  endfacet
  facet normal 0 0 -1
    outer loop
      vertex -1.56976 -24.9507 0
      vertex 1.53081e-15 25 0
      vertex -4.59243e-15 -25 0
    endloop
  endfacet
  facet normal 0 0 -1
    outer loop
      vertex -1.56976 -24.9507 0
      vertex -1.56976 24.9507 0
      vertex 1.53081e-15 25 0
    endloop
  endfacet
  facet normal 0 0 -1
    outer loop
      vertex -3.13333 -24.8029 0
      vertex -1.56976 24.9507 0
      vertex -1.56976 -24.9507 0
    endloop
  endfacet
  facet normal 0 0 -1
    outer loop
      vertex -3.13333 -24.8029 0
      vertex -3.13333 24.8029 0
      vertex -1.56976 24.9507 0
    endloop
  endfacet
  facet normal 0 0 -1
    outer loop
      vertex -4.68453 -24.5572 0
      vertex -3.13333 24.8029 0
      vertex -3.13333 -24.8029 0
    endloop
  endfacet
  facet normal 0 0 -1
    outer loop
      vertex -4.68453 -24.5572 0
      vertex -4.68453 24.5572 0
      vertex -3.13333 24.8029 0
    endloop
  endfacet
  facet normal 0 0 -1
    outer loop
      vertex -6.21725 -24.2146 0
      vertex -4.68453 24.5572 0
      vertex -4.68453 -24.5572 0
    endloop
  endfacet
  facet normal 0 0 -1
    outer loop
      vertex -6.21725 -24.2146 0
      vertex -6.21725 24.2146 0
      vertex -4.68453 24.5572 0
    endloop
  endfacet
  facet normal 0 0 -1
    outer loop
      vertex -7.72542 -23.7764 0
      vertex -6.21725 24.2146 0
      vertex -6.21725 -24.2146 0
    endloop
  endfacet
  facet normal 0 0 -1
    outer loop
      vertex -7.72542 -23.7764 0
      vertex -7.72542 23.7764 0
      vertex -6.21725 24.2146 0
    endloop
  endfacet
  facet normal 0 0 -1
    outer loop
      vertex -9.20311 -23.2444 0
      vertex -7.72542 23.7764 0
      vertex -7.72542 -23.7764 0
    endloop
  endfacet
  facet normal 0 0 -1
    outer loop
      vertex -9.20311 -23.2444 0
      vertex -9.20311 23.2444 0
      vertex -7.72542 23.7764 0
    endloop
  endfacet
  facet normal 0 0 -1
    outer loop
      vertex -10.6445 -22.6207 0
      vertex -9.20311 23.2444 0
      vertex -9.20311 -23.2444 0
    endloop
  endfacet
  facet normal 0 0 -1
    outer loop
      vertex -10.6445 -22.6207 0
      vertex -10.6445 22.6207 0
      vertex -9.20311 23.2444 0
    endloop
  endfacet
  facet normal 0 0 -1
    outer loop
      vertex -12.0438 -21.9077 0
      vertex -10.6445 22.6207 0
      vertex -10.6445 -22.6207 0
    endloop
  endfacet
  facet normal 0 0 -1
    outer loop
      vertex -12.0438 -21.9077 0
      vertex -12.0438 21.9077 0
      vertex -10.6445 22.6207 0
    endloop
  endfacet
  facet normal 0 0 -1
    outer loop
      vertex -13.3957 -21.1082 0
      vertex -12.0438 21.9077 0
      vertex -12.0438 -21.9077 0
    endloop
  endfacet
  facet normal 0 0 -1
    outer loop
      vertex -13.3957 -21.1082 0
      vertex -13.3957 21.1082 0
      vertex -12.0438 21.9077 0
    endloop
  endfacet
  facet normal 0 0 -1
    outer loop
      vertex -14.6946 -20.2254 0
      vertex -13.3957 21.1082 0
      vertex -13.3957 -21.1082 0
    endloop
  endfacet
  facet normal 0 0 -1
    outer loop
      vertex -14.6946 -20.2254 0
      vertex -14.6946 20.2254 0
      vertex -13.3957 21.1082 0
    endloop
  endfacet
  facet normal 0 0 -1
    outer loop
      vertex -15.9356 -19.2628 0
      vertex -14.6946 20.2254 0
      vertex -14.6946 -20.2254 0
    endloop
  endfacet
  facet normal 0 0 -1
    outer loop
      vertex -15.9356 -19.2628 0
      vertex -15.9356 19.2628 0
      vertex -14.6946 20.2254 0
    endloop
  endfacet
  facet normal 0 0 -1
    outer loop
      vertex -17.1137 -18.2242 0
      vertex -15.9356 19.2628 0
      vertex -15.9356 -19.2628 0
    endloop
  endfacet
  facet normal 0 0 -1
    outer loop
      vertex -17.1137 -18.2242 0
      vertex -17.1137 18.2242 0
      vertex -15.9356 19.2628 0
    endloop
  endfacet
  facet normal 0 0 -1
    outer loop
      vertex -18.2242 -17.1137 0
      vertex -17.1137 18.2242 0
      vertex -17.1137 -18.2242 0
    endloop
  endfacet
  facet normal 0 0 -1
    outer loop
      vertex -18.2242 -17.1137 0
      vertex -18.2242 17.1137 0
      vertex -17.1137 18.2242 0
    endloop
  endfacet
  facet normal 0 0 -1
    outer loop
      vertex -19.2628 -15.9356 0
      vertex -18.2242 17.1137 0
      vertex -18.2242 -17.1137 0
    endloop
  endfacet
  facet normal 0 0 -1
    outer loop
      vertex -19.2628 -15.9356 0
      vertex -19.2628 15.9356 0
      vertex -18.2242 17.1137 0
    endloop
  endfacet
  facet normal 0 0 -1
    outer loop
      vertex -20.2254 -14.6946 0
      vertex -19.2628 15.9356 0
      vertex -19.2628 -15.9356 0
    endloop
  endfacet
  facet normal 0 0 -1
    outer loop
      vertex -20.2254 -14.6946 0
      vertex -20.2254 14.6946 0
      vertex -19.2628 15.9356 0
    endloop
  endfacet
  facet normal 0 0 -1
    outer loop
      vertex -21.1082 -13.3957 0
      vertex -20.2254 14.6946 0
      vertex -20.2254 -14.6946 0
    endloop
  endfacet
  facet normal 0 0 -1
    outer loop
      vertex -21.1082 -13.3957 0
      vertex -21.1082 13.3957 0
      vertex -20.2254 14.6946 0
    endloop
  endfacet
  facet normal 0 0 -1
    outer loop
      vertex -21.9077 -12.0438 0
      vertex -21.1082 13.3957 0
      vertex -21.1082 -13.3957 0
    endloop
  endfacet
  facet normal 0 0 -1
    outer loop
      vertex -21.9077 -12.0438 0
      vertex -21.9077 12.0438 0
      vertex -21.1082 13.3957 0
    endloop
  endfacet
  facet normal 0 0 -1
    outer loop
      vertex -22.6207 -10.6445 0
      vertex -21.9077 12.0438 0
      vertex -21.9077 -12.0438 0
    endloop
  endfacet
  facet normal 0 0 -1
    outer loop
      vertex -22.6207 -10.6445 0
      vertex -22.6207 10.6445 0
      vertex -21.9077 12.0438 0
    endloop
  endfacet
  facet normal 0 0 -1
    outer loop
      vertex -23.2444 -9.20311 0
      vertex -22.6207 10.6445 0
      vertex -22.6207 -10.6445 0
    endloop
  endfacet
  facet normal 0 0 -1
    outer loop
      vertex -23.2444 -9.20311 0
      vertex -23.2444 9.20311 0
      vertex -22.6207 10.6445 0
    endloop
  endfacet
  facet normal 0 0 -1
    outer loop
      vertex -23.7764 -7.72542 0
      vertex -23.2444 9.20311 0
      vertex -23.2444 -9.20311 0
    endloop
  endfacet
  facet normal 0 0 -1
    outer loop
      vertex -23.7764 -7.72542 0
      vertex -23.7764 7.72542 0
      vertex -23.2444 9.20311 0
    endloop
  endfacet
  facet normal 0 0 -1
    outer loop
      vertex -24.2146 -6.21725 0
      vertex -23.7764 7.72542 0
      vertex -23.7764 -7.72542 0
    endloop
  endfacet
  facet normal 0 0 -1
    outer loop
      vertex -24.2146 -6.21725 0
      vertex -24.2146 6.21725 0
      vertex -23.7764 7.72542 0
    endloop
  endfacet
  facet normal 0 0 -1
    outer loop
      vertex -24.5572 -4.68453 0
      vertex -24.2146 6.21725 0
      vertex -24.2146 -6.21725 0
    endloop
  endfacet
  facet normal 0 0 -1
    outer loop
      vertex -24.5572 -4.68453 0
      vertex -24.5572 4.68453 0
      vertex -24.2146 6.21725 0
    endloop
  endfacet
  facet normal 0 0 -1
    outer loop
      vertex -24.8029 -3.13333 0
      vertex -24.5572 4.68453 0
      vertex -24.5572 -4.68453 0
    endloop
  endfacet
  facet normal 0 0 -1
    outer loop
      vertex -24.8029 -3.13333 0
      vertex -24.8029 3.13333 0
      vertex -24.5572 4.68453 0
    endloop
  endfacet
  facet normal 0 0 -1
    outer loop
      vertex -24.9507 -1.56976 0
      vertex -24.8029 3.13333 0
      vertex -24.8029 -3.13333 0
    endloop
  endfacet
  facet normal 0 0 -1
    outer loop
      vertex -24.9507 -1.56976 0
      vertex -24.9507 1.56976 0
      vertex -24.8029 3.13333 0
    endloop
  endfacet
  facet normal 0 -0 -1
    outer loop
      vertex -24.9507 1.56976 0
      vertex -24.9507 -1.56976 0
      vertex -25 3.06162e-15 0
    endloop
  endfacet
  facet normal 0 0 1
    outer loop
      vertex 24.9507 1.56976 50
      vertex 24.9507 -1.56976 50
      vertex 25 0 50
    endloop
  endfacet
  facet normal 0 0 1
    outer loop
      vertex 24.8029 3.13333 50
      vertex 24.9507 -1.56976 50
      vertex 24.9507 1.56976 50
    endloop
  endfacet
  facet normal 0 0 1
    outer loop
      vertex 24.8029 3.13333 50
      vertex 24.8029 -3.13333 50
      vertex 24.9507 -1.56976 50
    endloop
  endfacet
  facet normal 0 0 1
    outer loop
      vertex 24.5572 4.68453 50
      vertex 24.8029 -3.13333 50
      vertex 24.8029 3.13333 50
    endloop
  endfacet
  facet normal 0 0 1
    outer loop
      vertex 24.5572 4.68453 50
      vertex 24.5572 -4.68453 50
      vertex 24.8029 -3.13333 50
    endloop
  endfacet
  facet normal 0 0 1
    outer loop
      vertex 24.2146 6.21725 50
      vertex 24.5572 -4.68453 50
      vertex 24.5572 4.68453 50
    endloop
  endfacet
  facet normal 0 0 1
    outer loop
      vertex 24.2146 6.21725 50
      vertex 24.2146 -6.21725 50
      vertex 24.5572 -4.68453 50
    endloop
  endfacet
  facet normal 0 0 1
    outer loop
      vertex 23.7764 7.72542 50
      vertex 24.2146 -6.21725 50
      vertex 24.2146 6.21725 50
    endloop
  endfacet
  facet normal 0 0 1
    outer loop
      vertex 23.7764 7.72542 50
      vertex 23.7764 -7.72542 50
      vertex 24.2146 -6.21725 50
    endloop
  endfacet
  facet normal 0 0 1
    outer loop
      vertex 23.2444 9.20311 50
      vertex 23.7764 -7.72542 50
      vertex 23.7764 7.72542 50
    endloop
  endfacet
  facet normal 0 0 1
    outer loop
      vertex 23.2444 9.20311 50
      vertex 23.2444 -9.20311 50
      vertex 23.7764 -7.72542 50
    endloop
  endfacet
  facet normal 0 0 1
    outer loop
      vertex 22.6207 10.6445 50
      vertex 23.2444 -9.20311 50
      vertex 23.2444 9.20311 50
    endloop
  endfacet
  facet normal 0 0 1
    outer loop
      vertex 22.6207 10.6445 50
      vertex 22.6207 -10.6445 50
      vertex 23.2444 -9.20311 50
    endloop
  endfacet
  facet normal 0 0 1
    outer loop
      vertex 21.9077 12.0438 50
      vertex 22.6207 -10.6445 50
      vertex 22.6207 10.6445 50
    endloop
  endfacet
  facet normal 0 0 1
    outer loop
      vertex 21.9077 12.0438 50
      vertex 21.9077 -12.0438 50
      vertex 22.6207 -10.6445 50
    endloop
  endfacet
  facet normal 0 0 1
    outer loop
      vertex 21.1082 13.3957 50
      vertex 21.9077 -12.0438 50
      vertex 21.9077 12.0438 50
    endloop
  endfacet
  facet normal 0 0 1
    outer loop
      vertex 21.1082 13.3957 50
      vertex 21.1082 -13.3957 50
      vertex 21.9077 -12.0438 50
    endloop
  endfacet
  facet normal 0 0 1
    outer loop
      vertex 20.2254 14.6946 50
      vertex 21.1082 -13.3957 50
      vertex 21.1082 13.3957 50
    endloop
  endfacet
  facet normal 0 0 1
    outer loop
      vertex 20.2254 14.6946 50
      vertex 20.2254 -14.6946 50
      vertex 21.1082 -13.3957 50
    endloop
  endfacet
  facet normal 0 0 1
    outer loop
      vertex 19.2628 15.9356 50
      vertex 20.2254 -14.6946 50
      vertex 20.2254 14.6946 50
    endloop
  endfacet
  facet normal 0 0 1
    outer loop
      vertex 19.2628 15.9356 50
      vertex 19.2628 -15.9356 50
      vertex 20.2254 -14.6946 50
    endloop
  endfacet
  facet normal 0 0 1
    outer loop
      vertex 18.2242 17.1137 50
      vertex 19.2628 -15.9356 50
      vertex 19.2628 15.9356 50
    endloop
  endfacet
  facet normal 0 0 1
    outer loop
      vertex 18.2242 17.1137 50
      vertex 18.2242 -17.1137 50
      vertex 19.2628 -15.9356 50
    endloop
  endfacet
  facet normal 0 0 1
    outer loop
      vertex 17.1137 18.2242 50
      vertex 18.2242 -17.1137 50
      vertex 18.2242 17.1137 50
    endloop
  endfacet
  facet normal 0 0 1
    outer loop
      vertex 17.1137 18.2242 50
      vertex 17.1137 -18.2242 50
      vertex 18.2242 -17.1137 50
    endloop
  endfacet
  facet normal 0 0 1
    outer loop
      vertex 15.9356 19.2628 50
      vertex 17.1137 -18.2242 50
      vertex 17.1137 18.2242 50
    endloop
  endfacet
  facet normal 0 0 1
    outer loop
      vertex 15.9356 19.2628 50
      vertex 15.9356 -19.2628 50
      vertex 17.1137 -18.2242 50
    endloop
  endfacet
  facet normal 0 0 1
    outer loop
      vertex 14.6946 20.2254 50
      vertex 15.9356 -19.2628 50
      vertex 15.9356 19.2628 50
    endloop
  endfacet
  facet normal 0 0 1
    outer loop
      vertex 14.6946 20.2254 50
      vertex 14.6946 -20.2254 50
      vertex 15.9356 -19.2628 50
    endloop
  endfacet
  facet normal 0 0 1
    outer loop
      vertex 13.3957 21.1082 50
      vertex 14.6946 -20.2254 50
      vertex 14.6946 20.2254 50
    endloop
  endfacet
  facet normal 0 0 1
    outer loop
      vertex 13.3957 21.1082 50
      vertex 13.3957 -21.1082 50
      vertex 14.6946 -20.2254 50
    endloop
  endfacet
  facet normal 0 0 1
    outer loop
      vertex 12.0438 21.9077 50
      vertex 13.3957 -21.1082 50
      vertex 13.3957 21.1082 50
    endloop
  endfacet
  facet normal 0 0 1
    outer loop
      vertex 12.0438 21.9077 50
      vertex 12.0438 -21.9077 50
      vertex 13.3957 -21.1082 50
    endloop
  endfacet
  facet normal 0 0 1
    outer loop
      vertex 10.6445 22.6207 50
      vertex 12.0438 -21.9077 50
      vertex 12.0438 21.9077 50
    endloop
  endfacet
  facet normal 0 0 1
    outer loop
      vertex 10.6445 22.6207 50
      vertex 10.6445 -22.6207 50
      vertex 12.0438 -21.9077 50
    endloop
  endfacet
  facet normal 0 0 1
    outer loop
      vertex 9.20311 23.2444 50
      vertex 10.6445 -22.6207 50
      vertex 10.6445 22.6207 50
    endloop
  endfacet
  facet normal 0 0 1
    outer loop
      vertex 9.20311 23.2444 50
      vertex 9.20311 -23.2444 50
      vertex 10.6445 -22.6207 50
    endloop
  endfacet
  facet normal 0 0 1
    outer loop
      vertex 7.72542 23.7764 50
      vertex 9.20311 -23.2444 50
      vertex 9.20311 23.2444 50
    endloop
  endfacet
  facet normal 0 0 1
    outer loop
      vertex 7.72542 23.7764 50
      vertex 7.72542 -23.7764 50
      vertex 9.20311 -23.2444 50
    endloop
  endfacet
  facet normal 0 0 1
    outer loop
      vertex 6.21725 24.2146 50
      vertex 7.72542 -23.7764 50
      vertex 7.72542 23.7764 50
    endloop
  endfacet
  facet normal 0 0 1
    outer loop
      vertex 6.21725 24.2146 50
      vertex 6.21725 -24.2146 50
      vertex 7.72542 -23.7764 50
    endloop
  endfacet
  facet normal 0 0 1
    outer loop
      vertex 4.68453 24.5572 50
      vertex 6.21725 -24.2146 50
      vertex 6.21725 24.2146 50
    endloop
  endfacet
  facet normal 0 0 1
    outer loop
      vertex 4.68453 24.5572 50
      vertex 4.68453 -24.5572 50
      vertex 6.21725 -24.2146 50
    endloop
  endfacet
  facet normal 0 0 1
    outer loop
      vertex 3.13333 24.8029 50
      vertex 4.68453 -24.5572 50
      vertex 4.68453 24.5572 50
    endloop
  endfacet
  facet normal 0 0 1
    outer loop
      vertex 3.13333 24.8029 50
      vertex 3.13333 -24.8029 50
      vertex 4.68453 -24.5572 50
    endloop
  endfacet
  facet normal 0 0 1
    outer loop
      vertex 1.56976 24.9507 50
      vertex 3.13333 -24.8029 50
      vertex 3.13333 24.8029 50
    endloop
  endfacet
  facet normal 0 0 1
    outer loop
      vertex 1.56976 24.9507 50
      vertex 1.56976 -24.9507 50
      vertex 3.13333 -24.8029 50
    endloop
  endfacet
  facet normal 0 0 1
    outer loop
      vertex 1.53081e-15 25 50
      vertex 1.56976 -24.9507 50
      vertex 1.56976 24.9507 50
    endloop
  endfacet
  facet normal 0 0 1
    outer loop
      vertex 1.53081e-15 25 50
      vertex -4.59243e-15 -25 50
      vertex 1.56976 -24.9507 50
    endloop
  endfacet
  facet normal -0 0 1
    outer loop
      vertex -1.56976 24.9507 50
      vertex -4.59243e-15 -25 50
      vertex 1.53081e-15 25 50
    endloop
  endfacet
  facet normal 0 0 1
    outer loop
      vertex -1.56976 24.9507 50
      vertex -1.56976 -24.9507 50
      vertex -4.59243e-15 -25 50
    endloop
  endfacet
  facet normal -0 0 1
    outer loop
      vertex -3.13333 24.8029 50
      vertex -1.56976 -24.9507 50
      vertex -1.56976 24.9507 50
    endloop
  endfacet
  facet normal 0 0 1
    outer loop
      vertex -3.13333 24.8029 50
      vertex -3.13333 -24.8029 50
      vertex -1.56976 -24.9507 50
    endloop
  endfacet
  facet normal -0 0 1
    outer loop
      vertex -4.68453 24.5572 50
      vertex -3.13333 -24.8029 50
      vertex -3.13333 24.8029 50
    endloop
  endfacet
  facet normal 0 0 1
    outer loop
      vertex -4.68453 24.5572 50
      vertex -4.68453 -24.5572 50
      vertex -3.13333 -24.8029 50
    endloop
  endfacet
  facet normal -0 0 1
    outer loop
      vertex -6.21725 24.2146 50
      vertex -4.68453 -24.5572 50
      vertex -4.68453 24.5572 50
    endloop
  endfacet
  facet normal 0 0 1
    outer loop
      vertex -6.21725 24.2146 50
      vertex -6.21725 -24.2146 50
      vertex -4.68453 -24.5572 50
    endloop
  endfacet
  facet normal -0 0 1
    outer loop
      vertex -7.72542 23.7764 50
      vertex -6.21725 -24.2146 50
      vertex -6.21725 24.2146 50
    endloop
  endfacet
  facet normal 0 0 1
    outer loop
      vertex -7.72542 23.7764 50
      vertex -7.72542 -23.7764 50
      vertex -6.21725 -24.2146 50
    endloop
  endfacet
  facet normal -0 0 1
    outer loop
      vertex -9.20311 23.2444 50
      vertex -7.72542 -23.7764 50
      vertex -7.72542 23.7764 50
    endloop
  endfacet
  facet normal 0 0 1
    outer loop
      vertex -9.20311 23.2444 50
      vertex -9.20311 -23.2444 50
      vertex -7.72542 -23.7764 50
    endloop
  endfacet
  facet normal -0 0 1
    outer loop
      vertex -10.6445 22.6207 50
      vertex -9.20311 -23.2444 50
      vertex -9.20311 23.2444 50
    endloop
  endfacet
  facet normal 0 0 1
    outer loop
      vertex -10.6445 22.6207 50
      vertex -10.6445 -22.6207 50
      vertex -9.20311 -23.2444 50
    endloop
  endfacet
  facet normal -0 0 1
    outer loop
      vertex -12.0438 21.9077 50
      vertex -10.6445 -22.6207 50
      vertex -10.6445 22.6207 50
    endloop
  endfacet
  facet normal 0 0 1
    outer loop
      vertex -12.0438 21.9077 50
      vertex -12.0438 -21.9077 50
      vertex -10.6445 -22.6207 50
    endloop
  endfacet
  facet normal -0 0 1
    outer loop
      vertex -13.3957 21.1082 50
      vertex -12.0438 -21.9077 50
      vertex -12.0438 21.9077 50
    endloop
  endfacet
  facet normal 0 0 1
    outer loop
      vertex -13.3957 21.1082 50
      vertex -13.3957 -21.1082 50
      vertex -12.0438 -21.9077 50
    endloop
  endfacet
  facet normal -0 0 1
    outer loop
      vertex -14.6946 20.2254 50
      vertex -13.3957 -21.1082 50
      vertex -13.3957 21.1082 50
    endloop
  endfacet
  facet normal 0 0 1
    outer loop
      vertex -14.6946 20.2254 50
      vertex -14.6946 -20.2254 50
      vertex -13.3957 -21.1082 50
    endloop
  endfacet
  facet normal -0 0 1
    outer loop
      vertex -15.9356 19.2628 50
      vertex -14.6946 -20.2254 50
      vertex -14.6946 20.2254 50
    endloop
  endfacet
  facet normal 0 0 1
    outer loop
      vertex -15.9356 19.2628 50
      vertex -15.9356 -19.2628 50
      vertex -14.6946 -20.2254 50
    endloop
  endfacet
  facet normal -0 0 1
    outer loop
      vertex -17.1137 18.2242 50
      vertex -15.9356 -19.2628 50
      vertex -15.9356 19.2628 50
    endloop
  endfacet
  facet normal 0 0 1
    outer loop
      vertex -17.1137 18.2242 50
      vertex -17.1137 -18.2242 50
      vertex -15.9356 -19.2628 50
    endloop
  endfacet
  facet normal -0 0 1
    outer loop
      vertex -18.2242 17.1137 50
      vertex -17.1137 -18.2242 50
      vertex -17.1137 18.2242 50
    endloop
  endfacet
  facet normal 0 0 1
    outer loop
      vertex -18.2242 17.1137 50
      vertex -18.2242 -17.1137 50
      vertex -17.1137 -18.2242 50
    endloop
  endfacet
  facet normal -0 0 1
    outer loop
      vertex -19.2628 15.9356 50
      vertex -18.2242 -17.1137 50
      vertex -18.2242 17.1137 50
    endloop
  endfacet
  facet normal 0 0 1
    outer loop
      vertex -19.2628 15.9356 50
      vertex -19.2628 -15.9356 50
      vertex -18.2242 -17.1137 50
    endloop
  endfacet
  facet normal -0 0 1
    outer loop
      vertex -20.2254 14.6946 50
      vertex -19.2628 -15.9356 50
      vertex -19.2628 15.9356 50
    endloop
  endfacet
  facet normal 0 0 1
    outer loop
      vertex -20.2254 14.6946 50
      vertex -20.2254 -14.6946 50
      vertex -19.2628 -15.9356 50
    endloop
  endfacet
  facet normal -0 0 1
    outer loop
      vertex -21.1082 13.3957 50
      vertex -20.2254 -14.6946 50
      vertex -20.2254 14.6946 50
    endloop
  endfacet
  facet normal 0 0 1
    outer loop
      vertex -21.1082 13.3957 50
      vertex -21.1082 -13.3957 50
      vertex -20.2254 -14.6946 50
    endloop
  endfacet
  facet normal -0 0 1
    outer loop
      vertex -21.9077 12.0438 50
      vertex -21.1082 -13.3957 50
      vertex -21.1082 13.3957 50
    endloop
  endfacet
  facet normal 0 0 1
    outer loop
      vertex -21.9077 12.0438 50
      vertex -21.9077 -12.0438 50
      vertex -21.1082 -13.3957 50
    endloop
  endfacet
  facet normal -0 0 1
    outer loop
      vertex -22.6207 10.6445 50
      vertex -21.9077 -12.0438 50
      vertex -21.9077 12.0438 50
    endloop
  endfacet
  facet normal 0 0 1
    outer loop
      vertex -22.6207 10.6445 50
      vertex -22.6207 -10.6445 50
      vertex -21.9077 -12.0438 50
    endloop
  endfacet
  facet normal -0 0 1
    outer loop
      vertex -23.2444 9.20311 50
      vertex -22.6207 -10.6445 50
      vertex -22.6207 10.6445 50
    endloop
  endfacet
  facet normal 0 0 1
    outer loop
      vertex -23.2444 9.20311 50
      vertex -23.2444 -9.20311 50
      vertex -22.6207 -10.6445 50
    endloop
  endfacet
  facet normal -0 0 1
    outer loop
      vertex -23.7764 7.72542 50
      vertex -23.2444 -9.20311 50
      vertex -23.2444 9.20311 50
    endloop
  endfacet
  facet normal 0 0 1
    outer loop
      vertex -23.7764 7.72542 50
      vertex -23.7764 -7.72542 50
      vertex -23.2444 -9.20311 50
    endloop
  endfacet
  facet normal -0 0 1
    outer loop
      vertex -24.2146 6.21725 50
      vertex -23.7764 -7.72542 50
      vertex -23.7764 7.72542 50
    endloop
  endfacet
  facet normal 0 0 1
    outer loop
      vertex -24.2146 6.21725 50
      vertex -24.2146 -6.21725 50
      vertex -23.7764 -7.72542 50
    endloop
  endfacet
  facet normal -0 0 1
    outer loop
      vertex -24.5572 4.68453 50
      vertex -24.2146 -6.21725 50
      vertex -24.2146 6.21725 50
    endloop
  endfacet
  facet normal 0 0 1
    outer loop
      vertex -24.5572 4.68453 50
      vertex -24.5572 -4.68453 50
      vertex -24.2146 -6.21725 50
    endloop
  endfacet
  facet normal -0 0 1
    outer loop
      vertex -24.8029 3.13333 50
      vertex -24.5572 -4.68453 50
      vertex -24.5572 4.68453 50
    endloop
  endfacet
  facet normal 0 0 1
    outer loop
      vertex -24.8029 3.13333 50
      vertex -24.8029 -3.13333 50
      vertex -24.5572 -4.68453 50
    endloop
  endfacet
  facet normal -0 0 1
    outer loop
      vertex -24.9507 1.56976 50
      vertex -24.8029 -3.13333 50
      vertex -24.8029 3.13333 50
    endloop
  endfacet
  facet normal 0 0 1
    outer loop
      vertex -24.9507 1.56976 50
      vertex -24.9507 -1.56976 50
      vertex -24.8029 -3.13333 50
    endloop
  endfacet
  facet normal 0 -0 1
    outer loop
      vertex -24.9507 -1.56976 50
      vertex -24.9507 1.56976 50
      vertex -25 3.06162e-15 50
    endloop
  endfacet
endsolid OpenSCAD_Model
