solid OpenSCAD_Model
  facet normal 0 0 -1
    outer loop
      vertex -14.4338 -25 0
      vertex -14.4338 25 0
      vertex 28.8675 0 0
    endloop
  endfacet
  facet normal 0 0 1
    outer loop
      vertex 28.8675 0 100
      vertex -14.4338 25 100
      vertex -14.4338 -25 100
    endloop
  endfacet
  facet normal 0.5 0.866025 -0
    outer loop
      vertex 28.8675 0 0
      vertex -14.4338 25 100
      vertex 28.8675 0 100
    endloop
  endfacet
  facet normal 0.5 0.866025 0
    outer loop
      vertex -14.4338 25 100
      vertex 28.8675 0 0
      vertex -14.4338 25 0
    endloop
  endfacet
  facet normal -1 0 0
    outer loop
      vertex -14.4338 -25 0
      vertex -14.4338 25 100
      vertex -14.4338 25 0
    endloop
  endfacet
  facet normal -1 -0 0
    outer loop
      vertex -14.4338 25 100
      vertex -14.4338 -25 0
      vertex -14.4338 -25 100
    endloop
  endfacet
  facet normal 0.5 -0.866025 0
    outer loop
      vertex -14.4338 -25 0
      vertex 28.8675 0 100
      vertex -14.4338 -25 100
    endloop
  endfacet
  facet normal 0.5 -0.866025 0
    outer loop
      vertex 28.8675 0 100
      vertex -14.4338 -25 0
      vertex 28.8675 0 0
    endloop
  endfacet
endsolid OpenSCAD_Model
