solid OpenSCAD_Model
  facet normal -0.707107 -0.707107 0
    outer loop
      vertex -12.9171 -24.0385 0.961538
      vertex -12.9171 -24.0385 73.0769
      vertex -13.8786 -23.0769 0.961538
    endloop
  endfacet
  facet normal 0.377964 -0.654654 0.654654
    outer loop
      vertex 28.7188 0.961538 74.0385
      vertex -12.9171 -24.0385 73.0769
      vertex 28.7188 0 73.0769
    endloop
  endfacet
  facet normal 0.377964 0.654654 -0.654654
    outer loop
      vertex -12.9171 25 0
      vertex 28.7188 1.92308 0.961538
      vertex 28.7188 0.961538 0
    endloop
  endfacet
  facet normal 0.5 0.866025 -0
    outer loop
      vertex -12.9171 25.9615 0.961538
      vertex -12.9171 25.9615 73.0769
      vertex 28.7188 1.92308 0.961538
    endloop
  endfacet
  facet normal -0.57735 -0.57735 0.57735
    outer loop
      vertex -13.8786 -23.0769 73.0769
      vertex -12.9171 -24.0385 73.0769
      vertex -12.9171 -23.0769 74.0385
    endloop
  endfacet
  facet normal -0.57735 0.57735 -0.57735
    outer loop
      vertex -12.9171 25.9615 0.961538
      vertex -12.9171 25 0
      vertex -13.8786 25 0.961538
    endloop
  endfacet
  facet normal 0.377964 0.654654 0.654654
    outer loop
      vertex -12.9171 25 74.0385
      vertex 28.7188 0.961538 74.0385
      vertex -12.9171 25.9615 73.0769
    endloop
  endfacet
  facet normal 0.57735 -0.57735 0.57735
    outer loop
      vertex 28.7188 0.961538 74.0385
      vertex 28.7188 0 73.0769
      vertex 29.6803 0.961538 73.0769
    endloop
  endfacet
  facet normal 0.5 -0.866025 0
    outer loop
      vertex -12.9171 -24.0385 73.0769
      vertex -12.9171 -24.0385 0.961538
      vertex 28.7188 0 73.0769
    endloop
  endfacet
  facet normal 0.377964 0.654654 -0.654654
    outer loop
      vertex -12.9171 25.9615 0.961538
      vertex 28.7188 1.92308 0.961538
      vertex -12.9171 25 0
    endloop
  endfacet
  facet normal -1 3.69482e-16 0
    outer loop
      vertex -13.8786 -23.0769 0.961538
      vertex -13.8786 -23.0769 73.0769
      vertex -13.8786 25 73.0769
    endloop
  endfacet
  facet normal -0.707107 2.61263e-16 0.707107
    outer loop
      vertex -13.8786 -23.0769 73.0769
      vertex -12.9171 25 74.0385
      vertex -13.8786 25 73.0769
    endloop
  endfacet
  facet normal 0.707107 0.707107 0
    outer loop
      vertex 29.6803 0.961538 0.961538
      vertex 28.7188 1.92308 0.961538
      vertex 28.7188 1.92308 73.0769
    endloop
  endfacet
  facet normal -0.57735 -0.57735 -0.57735
    outer loop
      vertex -12.9171 -24.0385 0.961538
      vertex -13.8786 -23.0769 0.961538
      vertex -12.9171 -23.0769 0
    endloop
  endfacet
  facet normal 0.57735 0.57735 -0.57735
    outer loop
      vertex 28.7188 1.92308 0.961538
      vertex 29.6803 0.961538 0.961538
      vertex 28.7188 0.961538 0
    endloop
  endfacet
  facet normal 0.707107 -0.707107 0
    outer loop
      vertex 28.7188 0 73.0769
      vertex 29.6803 0.961538 0.961538
      vertex 29.6803 0.961538 73.0769
    endloop
  endfacet
  facet normal -0.707107 2.61525e-16 -0.707107
    outer loop
      vertex -13.8786 -23.0769 0.961538
      vertex -12.9171 25 0
      vertex -12.9171 -23.0769 0
    endloop
  endfacet
  facet normal -0.707107 2.61525e-16 -0.707107
    outer loop
      vertex -12.9171 25 0
      vertex -13.8786 -23.0769 0.961538
      vertex -13.8786 25 0.961538
    endloop
  endfacet
  facet normal -0.707107 -0.707107 0
    outer loop
      vertex -13.8786 -23.0769 0.961538
      vertex -12.9171 -24.0385 73.0769
      vertex -13.8786 -23.0769 73.0769
    endloop
  endfacet
  facet normal -0.707107 2.61263e-16 0.707107
    outer loop
      vertex -12.9171 25 74.0385
      vertex -13.8786 -23.0769 73.0769
      vertex -12.9171 -23.0769 74.0385
    endloop
  endfacet
  facet normal 0.5 0.866025 -0
    outer loop
      vertex 28.7188 1.92308 0.961538
      vertex -12.9171 25.9615 73.0769
      vertex 28.7188 1.92308 73.0769
    endloop
  endfacet
  facet normal 0.377964 0.654654 0.654654
    outer loop
      vertex -12.9171 25.9615 73.0769
      vertex 28.7188 0.961538 74.0385
      vertex 28.7188 1.92308 73.0769
    endloop
  endfacet
  facet normal 0.707107 -0.707107 0
    outer loop
      vertex 29.6803 0.961538 0.961538
      vertex 28.7188 0 73.0769
      vertex 28.7188 0 0.961538
    endloop
  endfacet
  facet normal 0.5 -0.866025 0
    outer loop
      vertex 28.7188 0 73.0769
      vertex -12.9171 -24.0385 0.961538
      vertex 28.7188 0 0.961538
    endloop
  endfacet
  facet normal 0.57735 -0.57735 -0.57735
    outer loop
      vertex 29.6803 0.961538 0.961538
      vertex 28.7188 0 0.961538
      vertex 28.7188 0.961538 0
    endloop
  endfacet
  facet normal 0.377964 -0.654654 -0.654654
    outer loop
      vertex 28.7188 0 0.961538
      vertex -12.9171 -24.0385 0.961538
      vertex 28.7188 0.961538 0
    endloop
  endfacet
  facet normal -0.57735 0.57735 0.57735
    outer loop
      vertex -12.9171 25 74.0385
      vertex -12.9171 25.9615 73.0769
      vertex -13.8786 25 73.0769
    endloop
  endfacet
  facet normal -0.707107 0.707107 0
    outer loop
      vertex -12.9171 25.9615 73.0769
      vertex -12.9171 25.9615 0.961538
      vertex -13.8786 25 73.0769
    endloop
  endfacet
  facet normal 0.377964 -0.654654 0.654654
    outer loop
      vertex -12.9171 -24.0385 73.0769
      vertex 28.7188 0.961538 74.0385
      vertex -12.9171 -23.0769 74.0385
    endloop
  endfacet
  facet normal 0 0 1
    outer loop
      vertex 28.7188 0.961538 74.0385
      vertex -12.9171 25 74.0385
      vertex -12.9171 -23.0769 74.0385
    endloop
  endfacet
  facet normal 0.707107 0.707107 -0
    outer loop
      vertex 29.6803 0.961538 0.961538
      vertex 28.7188 1.92308 73.0769
      vertex 29.6803 0.961538 73.0769
    endloop
  endfacet
  facet normal 0.57735 0.57735 0.57735
    outer loop
      vertex 28.7188 1.92308 73.0769
      vertex 28.7188 0.961538 74.0385
      vertex 29.6803 0.961538 73.0769
    endloop
  endfacet
  facet normal 0 -0 -1
    outer loop
      vertex -12.9171 25 0
      vertex 28.7188 0.961538 0
      vertex -12.9171 -23.0769 0
    endloop
  endfacet
  facet normal 0.377964 -0.654654 -0.654654
    outer loop
      vertex 28.7188 0.961538 0
      vertex -12.9171 -24.0385 0.961538
      vertex -12.9171 -23.0769 0
    endloop
  endfacet
  facet normal -1 3.69482e-16 0
    outer loop
      vertex -13.8786 -23.0769 0.961538
      vertex -13.8786 25 73.0769
      vertex -13.8786 25 0.961538
    endloop
  endfacet
  facet normal -0.707107 0.707107 0
    outer loop
      vertex -13.8786 25 73.0769
      vertex -12.9171 25.9615 0.961538
      vertex -13.8786 25 0.961538
    endloop
  endfacet
endsolid OpenSCAD_Model
