solid OpenSCAD_Model
  facet normal -0.57735 0.57735 0.57735
    outer loop
      vertex 0.961538 1.92308 74.0385
      vertex 0.961538 2.88462 73.0769
      vertex 0 1.92308 73.0769
    endloop
  endfacet
  facet normal -0.57735 0.57735 -0.57735
    outer loop
      vertex -33.9955 0.961538 0.961538
      vertex -33.034 1.92308 0.961538
      vertex -33.034 0.961538 0
    endloop
  endfacet
  facet normal -0.672699 -0.672699 0.308144
    outer loop
      vertex -33.9955 0.961538 0.961538
      vertex -6.19163e-15 -33.034 0.961538
      vertex -2.13504e-16 0 73.0769
    endloop
  endfacet
  facet normal -0.57735 0.57735 0.57735
    outer loop
      vertex 0 0.961538 74.0385
      vertex 0.961538 1.92308 74.0385
      vertex 0 1.92308 73.0769
    endloop
  endfacet
  facet normal 0.672699 -0.672699 0.308144
    outer loop
      vertex 1.92308 0 73.0769
      vertex 0.961538 -33.9955 0.961538
      vertex 34.9571 0 0.961538
    endloop
  endfacet
  facet normal -0.57735 -0.57735 -0.57735
    outer loop
      vertex -6.19163e-15 -33.034 0.961538
      vertex -33.9955 0.961538 0.961538
      vertex 0.961538 -33.034 0
    endloop
  endfacet
  facet normal -0 0 1
    outer loop
      vertex 0 0.961538 74.0385
      vertex 1.92308 0.961538 74.0385
      vertex 0.961538 1.92308 74.0385
    endloop
  endfacet
  facet normal 0.672699 -0.672699 0.308144
    outer loop
      vertex 0.961538 -0.961538 73.0769
      vertex 0.961538 -33.9955 0.961538
      vertex 1.92308 0 73.0769
    endloop
  endfacet
  facet normal -0.57735 -0.57735 -0.57735
    outer loop
      vertex 0.961538 -33.9955 0.961538
      vertex -6.19163e-15 -33.034 0.961538
      vertex 0.961538 -33.034 0
    endloop
  endfacet
  facet normal 0.57735 -0.57735 0.57735
    outer loop
      vertex 1.92308 0.961538 74.0385
      vertex 0.961538 -0.961538 73.0769
      vertex 1.92308 0 73.0769
    endloop
  endfacet
  facet normal 0.672699 0.672699 0.308144
    outer loop
      vertex 1.92308 34.9571 0.961538
      vertex 2.88462 0.961538 73.0769
      vertex 35.9186 0.961538 0.961538
    endloop
  endfacet
  facet normal 0.672699 0.672699 0.308144
    outer loop
      vertex 0.961538 2.88462 73.0769
      vertex 1.92308 34.9571 0.961538
      vertex 0.961538 35.9186 0.961538
    endloop
  endfacet
  facet normal -0.672699 -0.672699 0.308144
    outer loop
      vertex -2.13504e-16 0 73.0769
      vertex 0.961538 -33.9955 0.961538
      vertex 0.961538 -0.961538 73.0769
    endloop
  endfacet
  facet normal -0.672699 0.672699 0.308144
    outer loop
      vertex -33.034 1.92308 0.961538
      vertex -33.9955 0.961538 0.961538
      vertex 0 1.92308 73.0769
    endloop
  endfacet
  facet normal -0.672699 -0.672699 0.308144
    outer loop
      vertex -6.19163e-15 -33.034 0.961538
      vertex 0.961538 -33.9955 0.961538
      vertex -2.13504e-16 0 73.0769
    endloop
  endfacet
  facet normal -0.57735 -0.57735 0.57735
    outer loop
      vertex 0 0.961538 74.0385
      vertex -2.13504e-16 0 73.0769
      vertex 0.961538 0 74.0385
    endloop
  endfacet
  facet normal -0.672699 0.672699 0.308144
    outer loop
      vertex 0.961538 35.9186 0.961538
      vertex -33.034 1.92308 0.961538
      vertex 0 1.92308 73.0769
    endloop
  endfacet
  facet normal 0.57735 -0.57735 -0.57735
    outer loop
      vertex 0.961538 -33.9955 0.961538
      vertex 0.961538 -33.034 0
      vertex 34.9571 0.961538 0
    endloop
  endfacet
  facet normal 0.672699 0.672699 0.308144
    outer loop
      vertex 1.92308 34.9571 0.961538
      vertex 0.961538 2.88462 73.0769
      vertex 2.88462 0.961538 73.0769
    endloop
  endfacet
  facet normal 0.57735 0.57735 0.57735
    outer loop
      vertex 1.92308 0.961538 74.0385
      vertex 2.88462 0.961538 73.0769
      vertex 0.961538 1.92308 74.0385
    endloop
  endfacet
  facet normal 0.672699 -0.672699 0.308144
    outer loop
      vertex 35.9186 0.961538 0.961538
      vertex 1.92308 0 73.0769
      vertex 34.9571 0 0.961538
    endloop
  endfacet
  facet normal -0.57735 -0.57735 0.57735
    outer loop
      vertex -2.13504e-16 0 73.0769
      vertex 0.961538 -0.961538 73.0769
      vertex 0.961538 0 74.0385
    endloop
  endfacet
  facet normal 0 0 -1
    outer loop
      vertex 34.9571 0.961538 0
      vertex -33.034 0.961538 0
      vertex 0.961538 34.9571 0
    endloop
  endfacet
  facet normal 0.57735 0.57735 -0.57735
    outer loop
      vertex 34.9571 0.961538 0
      vertex 1.92308 34.9571 0.961538
      vertex 35.9186 0.961538 0.961538
    endloop
  endfacet
  facet normal -0.57735 0.57735 -0.57735
    outer loop
      vertex -33.034 1.92308 0.961538
      vertex 0.961538 35.9186 0.961538
      vertex -33.034 0.961538 0
    endloop
  endfacet
  facet normal 0.57735 0.57735 -0.57735
    outer loop
      vertex 1.92308 34.9571 0.961538
      vertex 34.9571 0.961538 0
      vertex 0.961538 34.9571 0
    endloop
  endfacet
  facet normal 0.57735 0.57735 0.57735
    outer loop
      vertex 2.88462 0.961538 73.0769
      vertex 0.961538 2.88462 73.0769
      vertex 0.961538 1.92308 74.0385
    endloop
  endfacet
  facet normal -0.672699 0.672699 0.308144
    outer loop
      vertex 0.961538 2.88462 73.0769
      vertex 0.961538 35.9186 0.961538
      vertex 0 1.92308 73.0769
    endloop
  endfacet
  facet normal -0.672699 -0.672699 0.308144
    outer loop
      vertex -33.9955 0.961538 0.961538
      vertex -2.13504e-16 0 73.0769
      vertex -0.961538 0.961538 73.0769
    endloop
  endfacet
  facet normal -0.57735 -0.57735 0.57735
    outer loop
      vertex -2.13504e-16 0 73.0769
      vertex 0 0.961538 74.0385
      vertex -0.961538 0.961538 73.0769
    endloop
  endfacet
  facet normal 0.57735 -0.57735 0.57735
    outer loop
      vertex 0.961538 -0.961538 73.0769
      vertex 1.92308 0.961538 74.0385
      vertex 0.961538 0 74.0385
    endloop
  endfacet
  facet normal 0 0 1
    outer loop
      vertex 1.92308 0.961538 74.0385
      vertex 0 0.961538 74.0385
      vertex 0.961538 0 74.0385
    endloop
  endfacet
  facet normal -0 0 -1
    outer loop
      vertex 34.9571 0.961538 0
      vertex 0.961538 -33.034 0
      vertex -33.034 0.961538 0
    endloop
  endfacet
  facet normal -0.57735 -0.57735 -0.57735
    outer loop
      vertex 0.961538 -33.034 0
      vertex -33.9955 0.961538 0.961538
      vertex -33.034 0.961538 0
    endloop
  endfacet
  facet normal 0.672699 -0.672699 0.308144
    outer loop
      vertex 35.9186 0.961538 0.961538
      vertex 2.88462 0.961538 73.0769
      vertex 1.92308 0 73.0769
    endloop
  endfacet
  facet normal 0.57735 -0.57735 0.57735
    outer loop
      vertex 2.88462 0.961538 73.0769
      vertex 1.92308 0.961538 74.0385
      vertex 1.92308 0 73.0769
    endloop
  endfacet
  facet normal -0.672699 0.672699 0.308144
    outer loop
      vertex -33.9955 0.961538 0.961538
      vertex -0.961538 0.961538 73.0769
      vertex 0 1.92308 73.0769
    endloop
  endfacet
  facet normal -0.57735 0.57735 0.57735
    outer loop
      vertex -0.961538 0.961538 73.0769
      vertex 0 0.961538 74.0385
      vertex 0 1.92308 73.0769
    endloop
  endfacet
  facet normal -0.57735 0.57735 -0.57735
    outer loop
      vertex -33.034 0.961538 0
      vertex 0.961538 35.9186 0.961538
      vertex 0.961538 34.9571 0
    endloop
  endfacet
  facet normal 0.57735 0.57735 -0.57735
    outer loop
      vertex 0.961538 35.9186 0.961538
      vertex 1.92308 34.9571 0.961538
      vertex 0.961538 34.9571 0
    endloop
  endfacet
  facet normal 0.57735 -0.57735 -0.57735
    outer loop
      vertex 0.961538 -33.9955 0.961538
      vertex 34.9571 0.961538 0
      vertex 34.9571 0 0.961538
    endloop
  endfacet
  facet normal 0.57735 -0.57735 -0.57735
    outer loop
      vertex 34.9571 0.961538 0
      vertex 35.9186 0.961538 0.961538
      vertex 34.9571 0 0.961538
    endloop
  endfacet
endsolid OpenSCAD_Model
