solid OpenSCAD_Model
  facet normal 0.632456 0.632456 0.447214
    outer loop
      vertex 2.16489e-15 35.3553 0
      vertex 0 0 50
      vertex 35.3553 0 0
    endloop
  endfacet
  facet normal -0.632456 0.632456 0.447214
    outer loop
      vertex -35.3553 4.32978e-15 0
      vertex 0 0 50
      vertex 2.16489e-15 35.3553 0
    endloop
  endfacet
  facet normal -0.632456 -0.632456 0.447214
    outer loop
      vertex -6.49467e-15 -35.3553 0
      vertex -0 0 50
      vertex -35.3553 4.32978e-15 0
    endloop
  endfacet
  facet normal 0.632456 -0.632456 0.447214
    outer loop
      vertex 35.3553 0 0
      vertex -0 -0 50
      vertex -6.49467e-15 -35.3553 0
    endloop
  endfacet
  facet normal 0 0 -1
    outer loop
      vertex -6.49467e-15 -35.3553 0
      vertex 2.16489e-15 35.3553 0
      vertex 35.3553 0 0
    endloop
  endfacet
  facet normal 0 0 -1
    outer loop
      vertex 2.16489e-15 35.3553 0
      vertex -6.49467e-15 -35.3553 0
      vertex -35.3553 4.32978e-15 0
    endloop
  endfacet
endsolid OpenSCAD_Model
