solid OpenSCAD_Model
  facet normal 0 0 1
    outer loop
      vertex 0.961538 0.961538 74.0385
      vertex 25 0.961538 74.0385
      vertex 25 25 74.0385
    endloop
  endfacet
  facet normal 0 0.707107 0.707107
    outer loop
      vertex 25 25 74.0385
      vertex 0.961538 25.9615 73.0769
      vertex 0.961538 25 74.0385
    endloop
  endfacet
  facet normal 0.57735 -0.57735 0.57735
    outer loop
      vertex 25 0.961538 74.0385
      vertex 25 0 73.0769
      vertex 25.9615 0.961538 73.0769
    endloop
  endfacet
  facet normal 0 0 1
    outer loop
      vertex 0.961538 0.961538 74.0385
      vertex 25 25 74.0385
      vertex 0.961538 25 74.0385
    endloop
  endfacet
  facet normal 0.57735 -0.57735 -0.57735
    outer loop
      vertex 25.9615 0.961538 0.961538
      vertex 25 0 0.961538
      vertex 25 0.961538 0
    endloop
  endfacet
  facet normal -0.707107 0.707107 0
    outer loop
      vertex 0 25 73.0769
      vertex 0.961538 25.9615 73.0769
      vertex 0.961538 25.9615 0.961538
    endloop
  endfacet
  facet normal 0.707107 0 0.707107
    outer loop
      vertex 25 25 74.0385
      vertex 25.9615 0.961538 73.0769
      vertex 25.9615 25 73.0769
    endloop
  endfacet
  facet normal -1 0 0
    outer loop
      vertex 0 0.961538 0.961538
      vertex 0 25 73.0769
      vertex 0 25 0.961538
    endloop
  endfacet
  facet normal 0 0.707107 -0.707107
    outer loop
      vertex 0.961538 25 0
      vertex 25 25.9615 0.961538
      vertex 25 25 0
    endloop
  endfacet
  facet normal -0.707107 -0.707107 -0
    outer loop
      vertex 0.961538 0 73.0769
      vertex 0 0.961538 0.961538
      vertex 0.961538 0 0.961538
    endloop
  endfacet
  facet normal 0.57735 0.57735 -0.57735
    outer loop
      vertex 25 25.9615 0.961538
      vertex 25.9615 25 0.961538
      vertex 25 25 0
    endloop
  endfacet
  facet normal 1 0 0
    outer loop
      vertex 25.9615 0.961538 0.961538
      vertex 25.9615 25 0.961538
      vertex 25.9615 0.961538 73.0769
    endloop
  endfacet
  facet normal 0.707107 -0.707107 0
    outer loop
      vertex 25 0 73.0769
      vertex 25 0 0.961538
      vertex 25.9615 0.961538 0.961538
    endloop
  endfacet
  facet normal 0 -0.707107 0.707107
    outer loop
      vertex 25 0.961538 74.0385
      vertex 0.961538 0.961538 74.0385
      vertex 25 0 73.0769
    endloop
  endfacet
  facet normal -0.707107 0 0.707107
    outer loop
      vertex 0.961538 0.961538 74.0385
      vertex 0.961538 25 74.0385
      vertex 0 25 73.0769
    endloop
  endfacet
  facet normal -0.57735 0.57735 0.57735
    outer loop
      vertex 0.961538 25 74.0385
      vertex 0.961538 25.9615 73.0769
      vertex 0 25 73.0769
    endloop
  endfacet
  facet normal 0 -1 0
    outer loop
      vertex 25 0 0.961538
      vertex 0.961538 0 73.0769
      vertex 0.961538 0 0.961538
    endloop
  endfacet
  facet normal -0.707107 0 -0.707107
    outer loop
      vertex 0 0.961538 0.961538
      vertex 0.961538 25 0
      vertex 0.961538 0.961538 0
    endloop
  endfacet
  facet normal -0.707107 0 -0.707107
    outer loop
      vertex 0.961538 25 0
      vertex 0 0.961538 0.961538
      vertex 0 25 0.961538
    endloop
  endfacet
  facet normal 0.707107 0.707107 0
    outer loop
      vertex 25.9615 25 0.961538
      vertex 25 25.9615 0.961538
      vertex 25 25.9615 73.0769
    endloop
  endfacet
  facet normal 0 -1 0
    outer loop
      vertex 25 0 0.961538
      vertex 25 0 73.0769
      vertex 0.961538 0 73.0769
    endloop
  endfacet
  facet normal 0 -0.707107 0.707107
    outer loop
      vertex 25 0 73.0769
      vertex 0.961538 0.961538 74.0385
      vertex 0.961538 0 73.0769
    endloop
  endfacet
  facet normal 0.707107 0 -0.707107
    outer loop
      vertex 25.9615 25 0.961538
      vertex 25.9615 0.961538 0.961538
      vertex 25 0.961538 0
    endloop
  endfacet
  facet normal 0.707107 -0.707107 0
    outer loop
      vertex 25 0 73.0769
      vertex 25.9615 0.961538 0.961538
      vertex 25.9615 0.961538 73.0769
    endloop
  endfacet
  facet normal -0.707107 0 0.707107
    outer loop
      vertex 0.961538 0.961538 74.0385
      vertex 0 25 73.0769
      vertex 0 0.961538 73.0769
    endloop
  endfacet
  facet normal -1 -0 0
    outer loop
      vertex 0 25 73.0769
      vertex 0 0.961538 0.961538
      vertex 0 0.961538 73.0769
    endloop
  endfacet
  facet normal 0 -0.707107 -0.707107
    outer loop
      vertex 25 0 0.961538
      vertex 0.961538 0.961538 0
      vertex 25 0.961538 0
    endloop
  endfacet
  facet normal 0 0 -1
    outer loop
      vertex 0.961538 0.961538 0
      vertex 0.961538 25 0
      vertex 25 0.961538 0
    endloop
  endfacet
  facet normal -0.57735 -0.57735 -0.57735
    outer loop
      vertex 0 0.961538 0.961538
      vertex 0.961538 0.961538 0
      vertex 0.961538 0 0.961538
    endloop
  endfacet
  facet normal 0 -0.707107 -0.707107
    outer loop
      vertex 0.961538 0.961538 0
      vertex 25 0 0.961538
      vertex 0.961538 0 0.961538
    endloop
  endfacet
  facet normal 0 1 -0
    outer loop
      vertex 25 25.9615 0.961538
      vertex 0.961538 25.9615 73.0769
      vertex 25 25.9615 73.0769
    endloop
  endfacet
  facet normal -0 0.707107 0.707107
    outer loop
      vertex 0.961538 25.9615 73.0769
      vertex 25 25 74.0385
      vertex 25 25.9615 73.0769
    endloop
  endfacet
  facet normal 0 1 0
    outer loop
      vertex 0.961538 25.9615 73.0769
      vertex 25 25.9615 0.961538
      vertex 0.961538 25.9615 0.961538
    endloop
  endfacet
  facet normal 0 0.707107 -0.707107
    outer loop
      vertex 25 25.9615 0.961538
      vertex 0.961538 25 0
      vertex 0.961538 25.9615 0.961538
    endloop
  endfacet
  facet normal 1 -0 0
    outer loop
      vertex 25.9615 0.961538 73.0769
      vertex 25.9615 25 0.961538
      vertex 25.9615 25 73.0769
    endloop
  endfacet
  facet normal 0.707107 0 0.707107
    outer loop
      vertex 25 25 74.0385
      vertex 25 0.961538 74.0385
      vertex 25.9615 0.961538 73.0769
    endloop
  endfacet
  facet normal -0.707107 -0.707107 0
    outer loop
      vertex 0 0.961538 0.961538
      vertex 0.961538 0 73.0769
      vertex 0 0.961538 73.0769
    endloop
  endfacet
  facet normal -0.57735 -0.57735 0.57735
    outer loop
      vertex 0.961538 0 73.0769
      vertex 0.961538 0.961538 74.0385
      vertex 0 0.961538 73.0769
    endloop
  endfacet
  facet normal 0.707107 0 -0.707107
    outer loop
      vertex 25.9615 25 0.961538
      vertex 25 0.961538 0
      vertex 25 25 0
    endloop
  endfacet
  facet normal 0 0 -1
    outer loop
      vertex 25 0.961538 0
      vertex 0.961538 25 0
      vertex 25 25 0
    endloop
  endfacet
  facet normal -0.707107 0.707107 0
    outer loop
      vertex 0 25 73.0769
      vertex 0.961538 25.9615 0.961538
      vertex 0 25 0.961538
    endloop
  endfacet
  facet normal -0.57735 0.57735 -0.57735
    outer loop
      vertex 0.961538 25.9615 0.961538
      vertex 0.961538 25 0
      vertex 0 25 0.961538
    endloop
  endfacet
  facet normal 0.707107 0.707107 -0
    outer loop
      vertex 25.9615 25 0.961538
      vertex 25 25.9615 73.0769
      vertex 25.9615 25 73.0769
    endloop
  endfacet
  facet normal 0.57735 0.57735 0.57735
    outer loop
      vertex 25 25.9615 73.0769
      vertex 25 25 74.0385
      vertex 25.9615 25 73.0769
    endloop
  endfacet
endsolid OpenSCAD_Model
