solid OpenSCAD_Model
  facet normal 0 0 -1
    outer loop
      vertex -2.45 -4.24352 0
      vertex -2.45 4.24352 0
      vertex 4.9 0 0
    endloop
  endfacet
  facet normal 0 0 1
    outer loop
      vertex 4.9 0 12
      vertex -2.45 4.24352 12
      vertex -2.45 -4.24352 12
    endloop
  endfacet
  facet normal 0.5 0.866025 -0
    outer loop
      vertex 4.9 0 0
      vertex -2.45 4.24352 12
      vertex 4.9 0 12
    endloop
  endfacet
  facet normal 0.5 0.866025 0
    outer loop
      vertex -2.45 4.24352 12
      vertex 4.9 0 0
      vertex -2.45 4.24352 0
    endloop
  endfacet
  facet normal -1 0 0
    outer loop
      vertex -2.45 -4.24352 0
      vertex -2.45 4.24352 12
      vertex -2.45 4.24352 0
    endloop
  endfacet
  facet normal -1 -0 0
    outer loop
      vertex -2.45 4.24352 12
      vertex -2.45 -4.24352 0
      vertex -2.45 -4.24352 12
    endloop
  endfacet
  facet normal 0.5 -0.866025 0
    outer loop
      vertex -2.45 -4.24352 0
      vertex 4.9 0 12
      vertex -2.45 -4.24352 12
    endloop
  endfacet
  facet normal 0.5 -0.866025 0
    outer loop
      vertex 4.9 0 12
      vertex -2.45 -4.24352 0
      vertex 4.9 0 0
    endloop
  endfacet
endsolid OpenSCAD_Model
